<?plantuml 1.2026.1?><svg xmlns="http://www.w3.org/2000/svg" xmlns:xlink="http://www.w3.org/1999/xlink" contentStyleType="text/css" data-diagram-type="DESCRIPTION" height="1251px" preserveAspectRatio="none" style="width:778px;height:1251px;background:#FEFEFE;" version="1.1" viewBox="0 0 778 1251" width="778px" zoomAndPan="magnify"><title>**AI Coding Agent Threat Model &#8212; Data Flow Diagram**
//Mapping the 4 Mindgard Attack Vectors Across Trust Boundaries//</title><defs/><g><rect fill="#FEFEFE" height="1251" style="stroke:none;stroke-width:1;" width="778" x="0" y="0"/><g class="title" data-source-line="9"><text fill="#000000" font-family="'Segoe UI'" font-size="22" font-weight="bold" lengthAdjust="spacing" textLength="595.2568" x="90.2314" y="40.2695">AI Coding Agent Threat Model &#8212; Data Flow Diagram</text><text fill="#000000" font-family="'Segoe UI'" font-size="22" font-style="italic" font-weight="bold" lengthAdjust="spacing" textLength="737.7197" x="19" y="66.1797">Mapping the 4 Mindgard Attack Vectors Across Trust Boundaries</text></g><!--cluster internet--><g class="cluster" data-qualified-name="internet" data-source-line="15" id="ent0003"><rect fill="#FFF3E0" height="159.79" rx="4" ry="4" style="stroke:#000000;stroke-width:1;" width="343" x="239.7476" y="192.9603"/><text fill="#000000" font-family="'Segoe UI'" font-size="12" font-weight="bold" lengthAdjust="spacing" textLength="178.7109" x="321.8921" y="210.5619">Trust Boundary: The Internet</text></g><!--cluster workspace--><g class="cluster" data-qualified-name="workspace" data-source-line="28" id="ent0008"><rect fill="#E3F2FD" height="113.27" rx="4" ry="4" style="stroke:#000000;stroke-width:1;" width="604" x="108.7476" y="376.7503"/><text fill="#000000" font-family="'Segoe UI'" font-size="12" font-weight="bold" lengthAdjust="spacing" textLength="196.4941" x="312.5005" y="394.3519">Trust Boundary: The Workspace</text></g><!--cluster ide--><g class="cluster" data-qualified-name="ide" data-source-line="35" id="ent0012"><rect fill="#E8F5E9" height="123.26" rx="4" ry="4" style="stroke:#000000;stroke-width:1;" width="498" x="114.7476" y="514.0203"/><text fill="#000000" font-family="'Segoe UI'" font-size="12" font-weight="bold" lengthAdjust="spacing" textLength="167.1973" x="280.1489" y="531.6219">Trust Boundary: The AI IDE</text></g><!--cluster hostos--><g class="cluster" data-qualified-name="hostos" data-source-line="42" id="ent0016"><rect fill="#F3E5F5" height="267.3" rx="4" ry="4" style="stroke:#000000;stroke-width:1;" width="441" x="282.7476" y="792.1803"/><text fill="#000000" font-family="'Segoe UI'" font-size="12" font-weight="bold" lengthAdjust="spacing" textLength="179.0918" x="413.7017" y="809.7819">Trust Boundary: The Host OS</text></g><!--cluster sandbox--><g class="cluster" data-qualified-name="sandbox" data-source-line="50" id="ent0021"><rect fill="#E0F7FA" height="271.93" rx="4" ry="4" style="stroke:#000000;stroke-width:1;" width="220" x="38.7476" y="661.2803"/><text fill="#000000" font-family="'Segoe UI'" font-size="12" font-weight="bold" lengthAdjust="spacing" textLength="182.1738" x="57.6606" y="678.8819">Trust Boundary: The Sandbox</text></g><!--entity repo--><g class="entity" data-qualified-name="internet.repo" data-source-line="16" id="ent0004"><rect fill="#FFE0B2" height="56.2656" rx="35" ry="35" style="stroke:#000000;stroke-width:1;" width="110.248" x="255.6276" y="257.2203"/><text fill="#000000" font-family="'Segoe UI'" font-size="12" lengthAdjust="spacing" textLength="54.4512" x="269.6276" y="282.8219">Malicious</text><text fill="#000000" font-family="'Segoe UI'" font-size="12" lengthAdjust="spacing" textLength="82.248" x="269.6276" y="296.9547">Git Repository</text></g><g class="entity" data-qualified-name="internet.GMN5" data-source-line="18" id="ent0006"><path d="M400.7576,237.9603 L400.7576,281.4803 L365.9576,285.4803 L400.7576,289.4803 L400.7576,332.7572 A4,4 0 0 0 404.7576,336.7572 L562.7439,336.7572 A4,4 0 0 0 566.7439,332.7572 L566.7439,243.9603 L556.7439,233.9603 L404.7576,233.9603 A4,4 0 0 0 400.7576,237.9603" fill="#FFFFFF" style="stroke:#000000;stroke-width:1;"/><path d="M556.7439,233.9603 L556.7439,241.9603 A2,2 0 0 0 558.7439,243.9603 L566.7439,243.9603 L556.7439,233.9603" fill="#FFFFFF" style="stroke:#000000;stroke-width:1;"/><text fill="#000000" font-family="'Segoe UI'" font-size="12" lengthAdjust="spacing" textLength="55.0664" x="410.7576" y="254.5619">Contains:</text><text fill="#000000" font-family="'Segoe UI'" font-size="12" lengthAdjust="spacing" textLength="122.3848" x="410.7576" y="268.6947">&#8226; .codex/config.toml</text><text fill="#000000" font-family="'Segoe UI'" font-size="12" lengthAdjust="spacing" textLength="135.0469" x="410.7576" y="282.8275">&#8226; .gemini/settings.json</text><text fill="#000000" font-family="'Segoe UI'" font-size="12" lengthAdjust="spacing" textLength="67.6055" x="410.7576" y="296.9603">&#8226; .mcp.json</text><text fill="#000000" font-family="'Segoe UI'" font-size="12" lengthAdjust="spacing" textLength="136.9863" x="410.7576" y="311.0931">&#8226; Adversarial dir names</text><text fill="#000000" font-family="'Segoe UI'" font-size="12" lengthAdjust="spacing" textLength="116.9648" x="410.7576" y="325.2259">&#8226; Poisoned commits</text></g><!--entity configs--><g class="entity" data-qualified-name="workspace.configs" data-source-line="29" id="ent0009"><rect fill="#BBDEFB" height="52.2656" rx="4" ry="4" style="stroke:#000000;stroke-width:1;" width="163.1367" x="129.1776" y="421.7503"/><rect fill="#BBDEFB" height="52.2656" rx="4" ry="4" style="stroke:#000000;stroke-width:1;" width="163.1367" x="125.1776" y="417.7503"/><text fill="#000000" font-family="'Segoe UI'" font-size="12" lengthAdjust="spacing" textLength="68.4551" x="137.1776" y="441.3519">Config Files</text><text fill="#000000" font-family="'Segoe UI'" font-size="12" lengthAdjust="spacing" textLength="139.1367" x="137.1776" y="455.4847">(.mcp.json, config.toml)</text></g><!--entity rules--><g class="entity" data-qualified-name="workspace.rules" data-source-line="30" id="ent0010"><rect fill="#BBDEFB" height="52.2656" rx="4" ry="4" style="stroke:#000000;stroke-width:1;" width="169.207" x="331.1476" y="421.7503"/><rect fill="#BBDEFB" height="52.2656" rx="4" ry="4" style="stroke:#000000;stroke-width:1;" width="169.207" x="327.1476" y="417.7503"/><text fill="#000000" font-family="'Segoe UI'" font-size="12" lengthAdjust="spacing" textLength="84.7266" x="339.1476" y="441.3519">Behavior Rules</text><text fill="#000000" font-family="'Segoe UI'" font-size="12" lengthAdjust="spacing" textLength="145.207" x="339.1476" y="455.4847">(.cursorrules, claude.md)</text></g><!--entity source--><g class="entity" data-qualified-name="workspace.source" data-source-line="31" id="ent0011"><rect fill="#BBDEFB" height="52.2656" rx="4" ry="4" style="stroke:#000000;stroke-width:1;" width="157.2188" x="539.1376" y="421.7503"/><rect fill="#BBDEFB" height="52.2656" rx="4" ry="4" style="stroke:#000000;stroke-width:1;" width="157.2188" x="535.1376" y="417.7503"/><text fill="#000000" font-family="'Segoe UI'" font-size="12" lengthAdjust="spacing" textLength="78.4688" x="547.1376" y="441.3519">Source &amp; Dirs</text><text fill="#000000" font-family="'Segoe UI'" font-size="12" lengthAdjust="spacing" textLength="133.2188" x="547.1376" y="455.4847">(directory names, .env)</text></g><!--entity loader--><g class="entity" data-qualified-name="ide.loader" data-source-line="36" id="ent0013"><rect fill="#C8E6C9" height="66.2656" rx="4" ry="4" style="stroke:#000000;stroke-width:1;" width="129.8262" x="299.8376" y="555.0203"/><rect fill="#C8E6C9" height="10" style="stroke:#000000;stroke-width:1;" width="15" x="409.6637" y="560.0203"/><rect fill="#C8E6C9" height="2" style="stroke:#000000;stroke-width:1;" width="4" x="407.6637" y="562.0203"/><rect fill="#C8E6C9" height="2" style="stroke:#000000;stroke-width:1;" width="4" x="407.6637" y="566.0203"/><text fill="#000000" font-family="'Segoe UI'" font-size="12" lengthAdjust="spacing" textLength="81.8262" x="318.8376" y="590.6219">Config Loader</text><text fill="#000000" font-family="'Segoe UI'" font-size="12" lengthAdjust="spacing" textLength="58.2832" x="318.8376" y="604.7547">&amp; Trust UI</text></g><!--entity executor--><g class="entity" data-qualified-name="ide.executor" data-source-line="37" id="ent0014"><rect fill="#C8E6C9" height="66.2656" rx="4" ry="4" style="stroke:#000000;stroke-width:1;" width="133.7637" x="130.8676" y="555.0203"/><rect fill="#C8E6C9" height="10" style="stroke:#000000;stroke-width:1;" width="15" x="244.6312" y="560.0203"/><rect fill="#C8E6C9" height="2" style="stroke:#000000;stroke-width:1;" width="4" x="242.6312" y="562.0203"/><rect fill="#C8E6C9" height="2" style="stroke:#000000;stroke-width:1;" width="4" x="242.6312" y="566.0203"/><text fill="#000000" font-family="'Segoe UI'" font-size="12" lengthAdjust="spacing" textLength="85.7637" x="149.8676" y="590.6219">Tool Discovery</text><text fill="#000000" font-family="'Segoe UI'" font-size="12" lengthAdjust="spacing" textLength="63.0762" x="149.8676" y="604.7547">&amp; Executor</text></g><!--entity agent--><g class="entity" data-qualified-name="ide.agent" data-source-line="38" id="ent0015"><rect fill="#C8E6C9" height="66.2656" rx="4" ry="4" style="stroke:#000000;stroke-width:1;" width="132.3223" x="464.5876" y="555.0203"/><rect fill="#C8E6C9" height="10" style="stroke:#000000;stroke-width:1;" width="15" x="576.9098" y="560.0203"/><rect fill="#C8E6C9" height="2" style="stroke:#000000;stroke-width:1;" width="4" x="574.9098" y="562.0203"/><rect fill="#C8E6C9" height="2" style="stroke:#000000;stroke-width:1;" width="4" x="574.9098" y="566.0203"/><text fill="#000000" font-family="'Segoe UI'" font-size="12" lengthAdjust="spacing" textLength="84.3223" x="483.5876" y="590.6219">Agent Context</text><text fill="#000000" font-family="'Segoe UI'" font-size="12" lengthAdjust="spacing" textLength="80.0859" x="483.5876" y="604.7547">Window (LLM)</text></g><!--entity host--><g class="entity" data-qualified-name="hostos.host" data-source-line="43" id="ent0017"><rect fill="#E1BEE7" height="66.2656" rx="4" ry="4" style="stroke:#000000;stroke-width:1;" width="122.5723" x="585.4576" y="839.7503"/><rect fill="#E1BEE7" height="10" style="stroke:#000000;stroke-width:1;" width="15" x="688.0298" y="844.7503"/><rect fill="#E1BEE7" height="2" style="stroke:#000000;stroke-width:1;" width="4" x="686.0298" y="846.7503"/><rect fill="#E1BEE7" height="2" style="stroke:#000000;stroke-width:1;" width="4" x="686.0298" y="850.7503"/><text fill="#000000" font-family="'Segoe UI'" font-size="12" lengthAdjust="spacing" textLength="74.5723" x="604.4576" y="875.3519">Host Process</text><text fill="#000000" font-family="'Segoe UI'" font-size="12" lengthAdjust="spacing" textLength="66.3691" x="604.4576" y="889.4847">(Node/Bun)</text></g><!--entity shell--><g class="entity" data-qualified-name="hostos.shell" data-source-line="44" id="ent0018"><rect fill="#E1BEE7" height="66.2656" rx="4" ry="4" style="stroke:#000000;stroke-width:1;" width="119.6602" x="298.9176" y="839.7503"/><rect fill="#E1BEE7" height="10" style="stroke:#000000;stroke-width:1;" width="15" x="398.5777" y="844.7503"/><rect fill="#E1BEE7" height="2" style="stroke:#000000;stroke-width:1;" width="4" x="396.5777" y="846.7503"/><rect fill="#E1BEE7" height="2" style="stroke:#000000;stroke-width:1;" width="4" x="396.5777" y="850.7503"/><text fill="#000000" font-family="'Segoe UI'" font-size="12" lengthAdjust="spacing" textLength="71.6602" x="317.9176" y="875.3519">Shell / Child</text><text fill="#000000" font-family="'Segoe UI'" font-size="12" lengthAdjust="spacing" textLength="56.7832" x="317.9176" y="889.4847">Processes</text></g><!--entity secrets--><g class="entity" data-qualified-name="hostos.secrets" data-source-line="45" id="ent0019"><path d="M453.1476,843.1803 C453.1476,833.1803 501.7501,833.1803 501.7501,833.1803 C501.7501,833.1803 550.3526,833.1803 550.3526,843.1803 L550.3526,902.5788 C550.3526,912.5788 501.7501,912.5788 501.7501,912.5788 C501.7501,912.5788 453.1476,912.5788 453.1476,902.5788 L453.1476,843.1803" fill="#E1BEE7" style="stroke:#000000;stroke-width:1;"/><path d="M453.1476,843.1803 C453.1476,853.1803 501.7501,853.1803 501.7501,853.1803 C501.7501,853.1803 550.3526,853.1803 550.3526,843.1803" fill="none" style="stroke:#000000;stroke-width:1;"/><text fill="#000000" font-family="'Segoe UI'" font-size="12" lengthAdjust="spacing" textLength="41.4961" x="467.1476" y="872.7819">Secrets</text><text fill="#000000" font-family="'Segoe UI'" font-size="12" lengthAdjust="spacing" textLength="69.2051" x="467.1476" y="886.9147">(/.ssh, .env,</text><text fill="#000000" font-family="'Segoe UI'" font-size="12" lengthAdjust="spacing" textLength="64.1191" x="467.1476" y="901.0475">AWS creds)</text></g><!--entity network--><g class="entity" data-qualified-name="hostos.network" data-source-line="46" id="ent0020"><path d="M468.4577,986.6346 C471.4534,980.1561 475.6201,981.368 479.6586,985.5378 C482.6518,979.2466 486.8524,977.4035 491.991,983.3813 C495.0098,977.4237 500.2594,977.8949 503.2588,983.4005 C507.7092,978.0297 513.3811,977.1981 516.5546,984.7176 C520.1743,979.9572 524.8146,980.9099 527.1076,986.1215 C530.828,979.4475 537.7076,979.1729 541.2939,986.2597 C548.3543,989.6052 548.4701,995.5633 542.4086,999.9752 C548.2666,1003.8174 548.0647,1007.6845 542.944,1012.0149 C549.0957,1016.6385 549.507,1020.9218 542.3295,1024.9103 C548.1316,1029.154 547.4477,1034.7057 540.5534,1037.0993 C538.6339,1043.4661 532.9315,1044.7593 528.6876,1039.4645 C525.5573,1046.6427 521.542,1047.8428 515.8188,1042.0338 C513.6526,1048.1399 509.8532,1049.8654 504.288,1045.9413 C499.3445,1051.2408 495.3091,1050.5971 492.7608,1043.6811 C486.0016,1047.6955 481.8732,1046.235 479.2056,1038.826 C474.9658,1042.8961 469.8432,1041.8671 467.6954,1036.3217 C461.1436,1034.193 460.4591,1028.7076 465.9015,1024.7238 C459.6667,1022.1739 458.299,1017.4553 462.8416,1012.2596 C458.0364,1005.9597 459.6426,1001.8259 466.5611,998.7549 C460.4941,994.6907 462.6707,988.8439 468.4577,986.6346" fill="#E1BEE7" style="stroke:#000000;stroke-width:1;"/><text fill="#000000" font-family="'Segoe UI'" font-size="12" lengthAdjust="spacing" textLength="48.5801" x="477.3176" y="1007.8119">Network</text><text fill="#000000" font-family="'Segoe UI'" font-size="12" lengthAdjust="spacing" textLength="50.8594" x="477.3176" y="1021.9447">Interface</text></g><!--entity sandboxeng--><g class="entity" data-qualified-name="sandbox.sandboxeng" data-source-line="51" id="ent0022"><rect fill="#B2EBF2" height="66.2656" rx="4" ry="4" style="stroke:#000000;stroke-width:1;" width="145.0605" x="95.2176" y="702.2803"/><rect fill="#B2EBF2" height="10" style="stroke:#000000;stroke-width:1;" width="15" x="220.2781" y="707.2803"/><rect fill="#B2EBF2" height="2" style="stroke:#000000;stroke-width:1;" width="4" x="218.2781" y="709.2803"/><rect fill="#B2EBF2" height="2" style="stroke:#000000;stroke-width:1;" width="4" x="218.2781" y="713.2803"/><text fill="#000000" font-family="'Segoe UI'" font-size="12" lengthAdjust="spacing" textLength="97.0605" x="114.2176" y="737.8819">bwrap / gVisor /</text><text fill="#000000" font-family="'Segoe UI'" font-size="12" lengthAdjust="spacing" textLength="95.6895" x="114.2176" y="752.0147">Seatbelt / WASM</text></g><g class="entity" data-qualified-name="sandbox.GMN23" data-source-line="53" id="ent0024"><path d="M54.8176,832.5503 L54.8176,913.2144 A4,4 0 0 0 58.8176,917.2144 L238.6769,917.2144 A4,4 0 0 0 242.6769,913.2144 L242.6769,838.5503 L232.6769,828.5503 L171.7476,828.5503 L167.7476,769.0503 L163.7476,828.5503 L58.8176,828.5503 A4,4 0 0 0 54.8176,832.5503" fill="#FFFFFF" style="stroke:#000000;stroke-width:1;"/><path d="M232.6769,828.5503 L232.6769,836.5503 A2,2 0 0 0 234.6769,838.5503 L242.6769,838.5503 L232.6769,828.5503" fill="#FFFFFF" style="stroke:#000000;stroke-width:1;"/><text fill="#000000" font-family="'Segoe UI'" font-size="12" lengthAdjust="spacing" textLength="88.6934" x="64.8176" y="849.1519">Defense layers:</text><text fill="#000000" font-family="'Segoe UI'" font-size="12" lengthAdjust="spacing" textLength="139.0898" x="64.8176" y="863.2847">&#8226; --unshare-all (bwrap)</text><text fill="#000000" font-family="'Segoe UI'" font-size="12" lengthAdjust="spacing" textLength="158.8594" x="64.8176" y="877.4175">&#8226; --network=none (gVisor)</text><text fill="#000000" font-family="'Segoe UI'" font-size="12" lengthAdjust="spacing" textLength="148.8223" x="64.8176" y="891.5503">&#8226; (deny default) (Seatbelt)</text><text fill="#000000" font-family="'Segoe UI'" font-size="12" lengthAdjust="spacing" textLength="150.1992" x="64.8176" y="905.6831">&#8226; allowedHosts: [] (WASM)</text></g><!--entity attacker--><g class="entity" data-qualified-name="attacker" data-source-line="12" id="ent0002"><ellipse cx="310.7496" cy="99.8203" fill="#FFD2D2" rx="8" ry="8" style="stroke:#000000;stroke-width:1;"/><path d="M310.7496,107.8203 L310.7496,134.8203 M297.7496,115.8203 L323.7496,115.8203 M310.7496,134.8203 L297.7496,149.8203 M310.7496,134.8203 L323.7496,149.8203" fill="none" style="stroke:#000000;stroke-width:1;"/><text fill="#000000" font-family="'Segoe UI'" font-size="12" font-weight="bold" lengthAdjust="spacing" textLength="52.084" x="284.7076" y="167.4219">Attacker</text></g><!--link attacker to repo--><g class="link" data-entity-1="ent0002" data-entity-2="ent0004" data-link-type="dependency" data-source-line="62" id="lnk26"><path d="M310.7476,174.1903 C310.7476,200.5503 310.7476,227.8803 310.7476,251.1403" fill="none" id="attacker-to-repo" style="stroke:#666666;stroke-width:1;"/><polygon fill="#666666" points="310.7476,257.1403,314.7476,248.1403,310.7476,252.1403,306.7476,248.1403,310.7476,257.1403" style="stroke:#666666;stroke-width:1;"/><text fill="#000000" font-family="'Segoe UI'" font-size="12" lengthAdjust="spacing" textLength="84.0469" x="221.7476" y="208.2719">Plants payload</text></g><!--link repo to configs--><g class="link" data-entity-1="ent0004" data-entity-2="ent0009" data-link-type="dependency" data-source-line="63" id="lnk27"><path d="M280.0876,313.6903 C280.0876,342.8503 280.0876,382.0403 280.0876,411.3003" fill="none" id="repo-to-configs" style="stroke:#4A90D9;stroke-width:1;"/><polygon fill="#4A90D9" points="280.0876,417.3003,284.0876,408.3003,280.0876,412.3003,276.0876,408.3003,280.0876,417.3003" style="stroke:#4A90D9;stroke-width:1;"/><text fill="#000000" font-family="'Segoe UI'" font-size="12" lengthAdjust="spacing" textLength="50.3555" x="225.0876" y="358.0919">git clone</text></g><!--link repo to configs--><g class="link" data-entity-1="ent0004" data-entity-2="ent0009" data-link-type="dependency" data-source-line="87" id="lnk43"><path d="M267.8576,313.6903 C267.8576,342.8503 267.8576,382.0403 267.8576,411.3003" fill="none" id="repo-to-configs-1" style="stroke:#B71C1C;stroke-width:1;stroke-dasharray:7,7;"/><polygon fill="#B71C1C" points="267.8576,417.3003,271.8576,408.3003,267.8576,412.3003,263.8576,408.3003,267.8576,417.3003" style="stroke:#B71C1C;stroke-width:1;"/><text fill="#000000" font-family="'Segoe UI'" font-size="12" font-weight="bold" lengthAdjust="spacing" textLength="82.8516" x="175.8937" y="382.0919">[V4] TOCTOU</text><text fill="#000000" font-family="'Segoe UI'" font-size="12" lengthAdjust="spacing" textLength="92.9238" x="170.8576" y="396.2247">git pull changes</text><text fill="#000000" font-family="'Segoe UI'" font-size="12" lengthAdjust="spacing" textLength="81.8145" x="176.4122" y="410.3575">trusted config</text></g><!--link repo to rules--><g class="link" data-entity-1="ent0004" data-entity-2="ent0010" data-link-type="dependency" data-source-line="64" id="lnk28"><path d="M340.0576,313.6903 C340.0576,342.8503 340.0576,382.0403 340.0576,411.3003" fill="none" id="repo-to-rules" style="stroke:#4A90D9;stroke-width:1;"/><polygon fill="#4A90D9" points="340.0576,417.3003,344.0576,408.3003,340.0576,412.3003,336.0576,408.3003,340.0576,417.3003" style="stroke:#4A90D9;stroke-width:1;"/></g><!--link repo to source--><g class="link" data-entity-1="ent0004" data-entity-2="ent0011" data-link-type="dependency" data-source-line="65" id="lnk29"><path d="M352.9576,313.7503 C352.9576,340.8203 352.9576,377.4803 352.9576,377.4803 C352.9576,377.4803 550.9376,377.4803 550.9376,377.4803 C550.9376,377.4803 550.9376,392.5303 550.9376,411.2703" fill="none" id="repo-to-source" style="stroke:#4A90D9;stroke-width:1;"/><polygon fill="#4A90D9" points="550.9376,417.2703,554.9376,408.2703,550.9376,412.2703,546.9376,408.2703,550.9376,417.2703" style="stroke:#4A90D9;stroke-width:1;"/></g><!--link configs to loader--><g class="link" data-entity-1="ent0009" data-entity-2="ent0013" data-link-type="dependency" data-source-line="66" id="lnk30"><path d="M292.7376,431.4803 C308.5876,431.4803 320.3176,431.4803 320.3176,431.4803 C320.3176,431.4803 320.3176,502.5103 320.3176,548.5403" fill="none" id="configs-to-loader" style="stroke:#4A90D9;stroke-width:1;"/><polygon fill="#4A90D9" points="320.3176,554.5403,324.3176,545.5403,320.3176,549.5403,316.3176,545.5403,320.3176,554.5403" style="stroke:#4A90D9;stroke-width:1;"/><text fill="#000000" font-family="'Segoe UI'" font-size="12" lengthAdjust="spacing" textLength="74.1914" x="325.3176" y="495.8219">Loads config</text></g><!--link configs to loader--><g class="link" data-entity-1="ent0009" data-entity-2="ent0013" data-link-type="dependency" data-source-line="72" id="lnk34"><path d="M292.6376,459.4803 C301.0976,459.4803 306.6576,459.4803 306.6576,459.4803 C306.6576,459.4803 306.6576,510.5603 306.6576,548.6803" fill="none" id="configs-to-loader-1" style="stroke:#FF0000;stroke-width:1;stroke-dasharray:7,7;"/><polygon fill="#FF0000" points="306.6576,554.6803,310.6576,545.6803,306.6576,549.6803,302.6576,545.6803,306.6576,554.6803" style="stroke:#FF0000;stroke-width:1;"/><text fill="#000000" font-family="'Segoe UI'" font-size="12" font-weight="bold" lengthAdjust="spacing" textLength="95.0332" x="192.9632" y="516.6719">[V1] Zero-Click</text><text fill="#000000" font-family="'Segoe UI'" font-size="12" lengthAdjust="spacing" textLength="123.6445" x="178.6576" y="530.8047">Malicious MCP config</text></g><!--link configs to loader--><g class="link" data-entity-1="ent0009" data-entity-2="ent0013" data-link-type="dependency" data-source-line="88" id="lnk44"><path d="M292.7976,445.4803 C304.9676,445.4803 313.4876,445.4803 313.4876,445.4803 C313.4876,445.4803 313.4876,506.5303 313.4876,548.7003" fill="none" id="configs-to-loader-2" style="stroke:#B71C1C;stroke-width:1;stroke-dasharray:7,7;"/><polygon fill="#B71C1C" points="313.4876,554.7003,317.4876,545.7003,313.4876,549.7003,309.4876,545.7003,313.4876,554.7003" style="stroke:#B71C1C;stroke-width:1;"/><text fill="#000000" font-family="'Segoe UI'" font-size="12" lengthAdjust="spacing" textLength="60.123" x="337.6243" y="506.3419">Trust NOT</text><text fill="#000000" font-family="'Segoe UI'" font-size="12" lengthAdjust="spacing" textLength="71.2207" x="332.0754" y="520.4747">re-validated</text><text fill="#000000" font-family="'Segoe UI'" font-size="12" lengthAdjust="spacing" textLength="98.3965" x="318.4876" y="534.6075">(path-based, not</text><text fill="#000000" font-family="'Segoe UI'" font-size="12" lengthAdjust="spacing" textLength="96.7969" x="319.2874" y="548.7403">content-hashed)</text></g><!--link source to agent--><g class="link" data-entity-1="ent0011" data-entity-2="ent0015" data-link-type="dependency" data-source-line="67" id="lnk31"><path d="M555.7276,474.3303 C555.7276,497.5203 555.7276,524.3203 555.7276,548.7603" fill="none" id="source-to-agent" style="stroke:#4A90D9;stroke-width:1;"/><polygon fill="#4A90D9" points="555.7276,554.7603,559.7276,545.7603,555.7276,549.7603,551.7276,545.7603,555.7276,554.7603" style="stroke:#4A90D9;stroke-width:1;"/><text fill="#000000" font-family="'Segoe UI'" font-size="12" lengthAdjust="spacing" textLength="110.7715" x="440.7276" y="507.1519">Indexes workspace</text></g><!--link source to agent--><g class="link" data-entity-1="ent0011" data-entity-2="ent0015" data-link-type="dependency" data-source-line="81" id="lnk39"><path d="M576.3176,474.3303 C576.3176,497.5203 576.3176,524.3203 576.3176,548.7603" fill="none" id="source-to-agent-1" style="stroke:#9C27B0;stroke-width:1;stroke-dasharray:7,7;"/><polygon fill="#9C27B0" points="576.3176,554.7603,580.3176,545.7603,576.3176,549.7603,572.3176,545.7603,576.3176,554.7603" style="stroke:#9C27B0;stroke-width:1;"/><text fill="#000000" font-family="'Segoe UI'" font-size="12" font-weight="bold" lengthAdjust="spacing" textLength="131.6191" x="581.3176" y="493.1519">[V3] Prompt Injection</text><text fill="#000000" font-family="'Segoe UI'" font-size="12" lengthAdjust="spacing" textLength="120.3457" x="586.9543" y="507.2847">Adversarial dir name</text></g><!--link executor to sandboxeng--><g class="link" data-entity-1="ent0014" data-entity-2="ent0022" data-link-type="dependency" data-source-line="68" id="lnk32"><path d="M185.5676,621.5703 C185.5676,645.5803 185.5676,671.8303 185.5676,695.8803" fill="none" id="executor-to-sandboxeng" style="stroke:#4A90D9;stroke-width:1;"/><polygon fill="#4A90D9" points="185.5676,701.8803,189.5676,692.8803,185.5676,696.8803,181.5676,692.8803,185.5676,701.8803" style="stroke:#4A90D9;stroke-width:1;"/><text fill="#000000" font-family="'Segoe UI'" font-size="12" lengthAdjust="spacing" textLength="55.4238" x="109.2785" y="626.3219">Tool calls</text><text fill="#000000" font-family="'Segoe UI'" font-size="12" lengthAdjust="spacing" textLength="88.8457" x="92.5676" y="640.4547">routed through</text><text fill="#000000" font-family="'Segoe UI'" font-size="12" lengthAdjust="spacing" textLength="50.0273" x="111.9767" y="654.5875">sandbox</text></g><!--link sandboxeng to shell--><g class="link" data-entity-1="ent0022" data-entity-2="ent0018" data-link-type="dependency" data-source-line="69" id="lnk33"><path d="M240.5476,735.4803 C287.3376,735.4803 339.4176,735.4803 339.4176,735.4803 C339.4176,735.4803 339.4176,792.5903 339.4176,833.2703" fill="none" id="sandboxeng-to-shell" style="stroke:#4A90D9;stroke-width:1;"/><polygon fill="#4A90D9" points="339.4176,839.2703,343.4176,830.2703,339.4176,834.2703,335.4176,830.2703,339.4176,839.2703" style="stroke:#4A90D9;stroke-width:1;"/><text fill="#000000" font-family="'Segoe UI'" font-size="12" lengthAdjust="spacing" textLength="106.6641" x="344.4176" y="754.5419">Isolated execution</text></g><!--link loader to shell--><g class="link" data-entity-1="ent0013" data-entity-2="ent0018" data-link-type="dependency" data-source-line="73" id="lnk35"><path d="M378.9976,621.6503 C378.9976,676.4803 378.9976,778.7603 378.9976,833.5103" fill="none" id="loader-to-shell" style="stroke:#FF0000;stroke-width:1;stroke-dasharray:7,7;"/><polygon fill="#FF0000" points="378.9976,839.5103,382.9976,830.5103,378.9976,834.5103,374.9976,830.5103,378.9976,839.5103" style="stroke:#FF0000;stroke-width:1;"/><text fill="#000000" font-family="'Segoe UI'" font-size="12" lengthAdjust="spacing" textLength="111.4922" x="262.9976" y="695.1819">MCP server spawns</text><text fill="#000000" font-family="'Segoe UI'" font-size="12" font-weight="bold" lengthAdjust="spacing" textLength="110.8828" x="263.3022" y="709.3147">OUTSIDE sandbox</text><text fill="#000000" font-family="'Segoe UI'" font-size="12" lengthAdjust="spacing" textLength="87.6152" x="274.936" y="723.4475">(full user privs)</text></g><!--link shell to network--><g class="link" data-entity-1="ent0018" data-entity-2="ent0020" data-link-type="dependency" data-source-line="74" id="lnk36"><path d="M358.7476,906.1903 C358.7476,946.9103 358.7476,1010.4803 358.7476,1010.4803 C358.7476,1010.4803 409.7076,1010.4803 451.9776,1010.4803" fill="none" id="shell-to-network" style="stroke:#FF0000;stroke-width:1;stroke-dasharray:7,7;"/><polygon fill="#FF0000" points="457.9776,1010.4803,448.9776,1006.4803,452.9776,1010.4803,448.9776,1014.4803,457.9776,1010.4803" style="stroke:#FF0000;stroke-width:1;"/><text fill="#000000" font-family="'Segoe UI'" font-size="12" lengthAdjust="spacing" textLength="75.8672" x="278.7476" y="986.5519">Reverse shell</text><text fill="#000000" font-family="'Segoe UI'" font-size="12" lengthAdjust="spacing" textLength="74.9531" x="279.2046" y="1000.6847">connects out</text></g><!--link configs to executor--><g class="link" data-entity-1="ent0009" data-entity-2="ent0014" data-link-type="dependency" data-source-line="77" id="lnk37"><path d="M197.7476,474.3303 C197.7476,497.5203 197.7476,524.3203 197.7476,548.7603" fill="none" id="configs-to-executor" style="stroke:#FF6600;stroke-width:1;stroke-dasharray:7,7;"/><polygon fill="#FF6600" points="197.7476,554.7603,201.7476,545.7603,197.7476,549.7603,193.7476,545.7603,197.7476,554.7603" style="stroke:#FF6600;stroke-width:1;"/><text fill="#000000" font-family="'Segoe UI'" font-size="12" font-weight="bold" lengthAdjust="spacing" textLength="122.1152" x="62.5425" y="493.1519">[V2] Race Condition</text><text fill="#000000" font-family="'Segoe UI'" font-size="12" lengthAdjust="spacing" textLength="139.7051" x="53.7476" y="507.2847">Discovery cmd in config</text></g><!--link executor to shell--><g class="link" data-entity-1="ent0014" data-entity-2="ent0018" data-link-type="dependency" data-source-line="78" id="lnk38"><path d="M253.6576,621.6003 C253.6576,696.7603 253.6576,872.4803 253.6576,872.4803 C253.6576,872.4803 269.0476,872.4803 292.5276,872.4803" fill="none" id="executor-to-shell" style="stroke:#FF6600;stroke-width:1;stroke-dasharray:7,7;"/><polygon fill="#FF6600" points="298.5276,872.4803,289.5276,868.4803,293.5276,872.4803,289.5276,876.4803,298.5276,872.4803" style="stroke:#FF6600;stroke-width:1;"/><text fill="#000000" font-family="'Segoe UI'" font-size="12" lengthAdjust="spacing" textLength="27.6152" x="152.1029" y="786.0819">Fires</text><text fill="#000000" font-family="'Segoe UI'" font-size="12" font-weight="bold" lengthAdjust="spacing" textLength="47.0215" x="183.515" y="786.0819">BEFORE</text><text fill="#000000" font-family="'Segoe UI'" font-size="12" lengthAdjust="spacing" textLength="115.3242" x="133.6576" y="800.2147">trust dialog renders</text></g><!--link agent to secrets--><g class="link" data-entity-1="ent0015" data-entity-2="ent0019" data-link-type="dependency" data-source-line="82" id="lnk40"><path d="M507.4676,621.6503 C507.4676,674.4303 507.4676,770.7103 507.4676,827.1303" fill="none" id="agent-to-secrets" style="stroke:#9C27B0;stroke-width:1;stroke-dasharray:7,7;"/><polygon fill="#9C27B0" points="507.4676,833.1303,511.4676,824.1303,507.4676,828.1303,503.4676,824.1303,507.4676,833.1303" style="stroke:#9C27B0;stroke-width:1;"/><text fill="#000000" font-family="'Segoe UI'" font-size="12" lengthAdjust="spacing" textLength="98.0098" x="404.4676" y="705.9919">Agent reads .env</text><text fill="#000000" font-family="'Segoe UI'" font-size="12" lengthAdjust="spacing" textLength="73.2305" x="416.8572" y="720.1247">via grep tool</text></g><!--link agent to host--><g class="link" data-entity-1="ent0015" data-entity-2="ent0017" data-link-type="dependency" data-source-line="83" id="lnk41"><path d="M591.1876,621.6503 C591.1876,676.4803 591.1876,778.7603 591.1876,833.5103" fill="none" id="agent-to-host" style="stroke:#9C27B0;stroke-width:1;stroke-dasharray:7,7;"/><polygon fill="#9C27B0" points="591.1876,839.5103,595.1876,830.5103,591.1876,834.5103,587.1876,830.5103,591.1876,839.5103" style="stroke:#9C27B0;stroke-width:1;"/><text fill="#000000" font-family="'Segoe UI'" font-size="12" font-weight="bold" lengthAdjust="spacing" textLength="72.6621" x="498.6856" y="747.1819">Host fetch()</text><text fill="#000000" font-family="'Segoe UI'" font-size="12" lengthAdjust="spacing" textLength="103.6582" x="483.1876" y="761.3147">exfiltrates secrets</text></g><!--link host to network--><g class="link" data-entity-1="ent0017" data-entity-2="ent0020" data-link-type="dependency" data-source-line="84" id="lnk42"><path d="M646.7476,906.1903 C646.7476,946.9103 646.7476,1010.4803 646.7476,1010.4803 C646.7476,1010.4803 595.7876,1010.4803 553.5176,1010.4803" fill="none" id="host-to-network" style="stroke:#9C27B0;stroke-width:1;stroke-dasharray:7,7;"/><polygon fill="#9C27B0" points="547.5176,1010.4803,556.5176,1014.4803,552.5176,1010.4803,556.5176,1006.4803,547.5176,1010.4803" style="stroke:#9C27B0;stroke-width:1;"/><text fill="#000000" font-family="'Segoe UI'" font-size="12" lengthAdjust="spacing" textLength="90.6738" x="653.5229" y="986.5519">Data exfiltrated</text><text fill="#000000" font-family="'Segoe UI'" font-size="12" lengthAdjust="spacing" textLength="94.2246" x="651.7476" y="1000.6847">via host process</text></g><g class="legend" data-source-line="91"><rect fill="none" height="168.9297" rx="4" ry="4" style="stroke:#000000;stroke-width:1;" width="479.3291" x="259.6431" y="1069.4803"/><text fill="#000000" font-family="'Segoe UI'" font-size="14" font-weight="bold" lengthAdjust="spacing" textLength="38.7734" x="277.2573" y="1098.0155">Color</text><text fill="#000000" font-family="'Segoe UI'" font-size="14" font-weight="bold" lengthAdjust="spacing" textLength="97.2275" x="333.2593" y="1098.0155">Attack Vector</text><text fill="#000000" font-family="'Segoe UI'" font-size="14" font-weight="bold" lengthAdjust="spacing" textLength="117.0996" x="573.8657" y="1098.0155">Affected Vendor</text><rect fill="#FF0000" height="24.4883" style="stroke:none;stroke-width:1;" width="56.002" x="268.6431" y="1104.9686"/><text fill="#000000" font-family="'Segoe UI'" font-size="14" lengthAdjust="spacing" textLength="4.4297" x="272.6431" y="1122.5037">&#160;</text><text fill="#000000" font-family="'Segoe UI'" font-size="14" lengthAdjust="spacing" textLength="213.8213" x="333.0747" y="1122.5037">V1: Zero-Click Config Autoload</text><text fill="#000000" font-family="'Segoe UI'" font-size="14" lengthAdjust="spacing" textLength="97.7813" x="573.6812" y="1122.5037">OpenAI Codex</text><rect fill="#FF6600" height="24.4883" style="stroke:none;stroke-width:1;" width="56.002" x="268.6431" y="1129.4569"/><text fill="#000000" font-family="'Segoe UI'" font-size="14" lengthAdjust="spacing" textLength="4.4297" x="272.6431" y="1146.992">&#160;</text><text fill="#000000" font-family="'Segoe UI'" font-size="14" lengthAdjust="spacing" textLength="155.6885" x="333.0747" y="1146.992">V2: Init Race Condition</text><text fill="#000000" font-family="'Segoe UI'" font-size="14" lengthAdjust="spacing" textLength="125.7061" x="573.6812" y="1146.992">Google Gemini CLI</text><rect fill="#9C27B0" height="24.4883" style="stroke:none;stroke-width:1;" width="56.002" x="268.6431" y="1153.9452"/><text fill="#000000" font-family="'Segoe UI'" font-size="14" lengthAdjust="spacing" textLength="4.4297" x="272.6431" y="1171.4803">&#160;</text><text fill="#000000" font-family="'Segoe UI'" font-size="14" lengthAdjust="spacing" textLength="223.7471" x="333.0747" y="1171.4803">V3: Adversarial Context Injection</text><text fill="#000000" font-family="'Segoe UI'" font-size="14" lengthAdjust="spacing" textLength="87.7188" x="573.6812" y="1171.4803">Amazon Kiro</text><rect fill="#B71C1C" height="24.4883" style="stroke:none;stroke-width:1;" width="56.002" x="268.6431" y="1178.4334"/><text fill="#000000" font-family="'Segoe UI'" font-size="14" lengthAdjust="spacing" textLength="4.4297" x="272.6431" y="1195.9686">&#160;</text><text fill="#000000" font-family="'Segoe UI'" font-size="14" lengthAdjust="spacing" textLength="206.4932" x="333.0747" y="1195.9686">V4: TOCTOU Trust Persistence</text><text fill="#000000" font-family="'Segoe UI'" font-size="14" lengthAdjust="spacing" textLength="147.8613" x="573.6812" y="1195.9686">Claude Code / Cursor</text><rect fill="#4A90D9" height="24.4883" style="stroke:none;stroke-width:1;" width="56.002" x="268.6431" y="1202.9217"/><text fill="#000000" font-family="'Segoe UI'" font-size="14" lengthAdjust="spacing" textLength="4.4297" x="272.6431" y="1220.4569">&#160;</text><text fill="#000000" font-family="'Segoe UI'" font-size="14" lengthAdjust="spacing" textLength="116.4707" x="333.0747" y="1220.4569">Normal data flow</text><text fill="#000000" font-family="'Segoe UI'" font-size="14" lengthAdjust="spacing" textLength="14" x="573.6812" y="1220.4569">&#8212;</text><line style="stroke:#000000;stroke-width:1;" x1="268.6431" x2="729.9722" y1="1080.4803" y2="1080.4803"/><line style="stroke:#000000;stroke-width:1;" x1="268.6431" x2="729.9722" y1="1104.9686" y2="1104.9686"/><line style="stroke:#000000;stroke-width:1;" x1="268.6431" x2="729.9722" y1="1129.4569" y2="1129.4569"/><line style="stroke:#000000;stroke-width:1;" x1="268.6431" x2="729.9722" y1="1153.9452" y2="1153.9452"/><line style="stroke:#000000;stroke-width:1;" x1="268.6431" x2="729.9722" y1="1178.4334" y2="1178.4334"/><line style="stroke:#000000;stroke-width:1;" x1="268.6431" x2="729.9722" y1="1202.9217" y2="1202.9217"/><line style="stroke:#000000;stroke-width:1;" x1="268.6431" x2="729.9722" y1="1227.41" y2="1227.41"/><line style="stroke:#000000;stroke-width:1;" x1="268.6431" x2="268.6431" y1="1080.4803" y2="1227.41"/><line style="stroke:#000000;stroke-width:1;" x1="324.645" x2="324.645" y1="1080.4803" y2="1227.41"/><line style="stroke:#000000;stroke-width:1;" x1="565.2515" x2="565.2515" y1="1080.4803" y2="1227.41"/><line style="stroke:#000000;stroke-width:1;" x1="729.9722" x2="729.9722" y1="1080.4803" y2="1227.41"/></g><?plantuml-src ZLTjKziu4FxkNx47CxqaGmY4jvAvTYOlDiSK29C4cBc63y9MR1T7yaWAa1vtqn_HNt0_hR_aLfBjE3IXb7w8fTr7gyUxpwv_Kn6TKaWJ4ZD7tiSi9O9CuOxuzw7WCnPqUS85R7gk_YjP17H2PedoE5CN114sXZJa5AvEDrOR3UEl57QRfSqCNZ0gu7rfFOaPLVEK0XSgugMDb0H1p4BOTnmLguH2hTO-XIutY-sGCWMZI52Yu9m7D84Vtxv3ZoW2Ni8VeHUJ455gjJ5hDCv9ccell3timtdCWf280DfAuSNXclgA2mbjNt0fOIHcKa57Xqj4J6MZuJY_mu_lt_0_k4-A2aOID4QVRDKXvc430pI8LDHg6q0aaEmH2VLwpLwp1BHqoXnsMtWP2gTCmrEL0miCZR0GBu_WooxB3jc1SUwF1tfxxWxyxG1838w4275EajYF-KoEsKciO41JBcFSd1jVWO_QpztfDD6BSKL1n66aW4_C9Yu2yiyK9ezicQSVt_w3RH_fVshud4tYS5lnQRBO2kaqPd53KgMGVxdzHNAss9twwV9AEtYWGYBhI70G2s2OQhBOlUGn6jC0V3wTnaflK1QOG9r_rbFRj4pTS74lK-BJDtDRU6JaFXO8c-wUr_HwXbsV9maYnPn9sEWQ4i2B4ueaLueRRa69dgf1imiIDZkTdkjrNY9rQ4GUOiogmIp3ycT2SY7q8y8bP1RGxMbWmSpgEgWXdmaC-XtMXD18oAp9-BdbTmksANkmEDAQva2liBfdESAAFEsvRwRKckV96cWctti7xd76v3J5zujrdVDunab0nPYzoqv7kT6EYLc6pUvxzx1xlEmvuZp1YqgVOohDjQlxHFqPNjUuqknXjRDL5PtYz4cDsGqA1Kf9vUpitD93p7xk-Wex-_QwVt9Sx0_VJ4zcd_4JuHF7jug5VE0TlAJ8s5uAxbEfN-e55c6ZCsFLmXMvtUsuxj6osp2YIG8Dw4Pn4enP1a2bVVrcS-4Ne9pU4MdatXTKwOF-RMnB6TcasHgpziqGS2kGMG9Pk_BP2Py5i751bQwVCJEADS4gClRCBXVsht1wO3aQ4XRSyIUezEY4CachRsOtyypObHdEfhlZ7Ndjb_JUFGgI8a_XDOgEWCQO3R7LtD54uU9DUtXU1g7OMpOxJRVZ5SfvnnNMkfREXOrHiYniICWSjMuXe_NwZCc825ed-0ugvlngQJTZwWF30A5YmrhiLmBAvda3ha8b3tPXWQZyaGOwRMGBFjz2HT-Ykav4BxYOeWeN3LLYICbimNRHskgVDmyF3s_h7sq3QS5bGXXcG4hckauTiuf6--tZdTwnjikLhmKXTY7C3qPNM1b9Mx5k9Sh9GPRsCc5e6U789TR9H6t9qbPo2_idzYvQqdQdK8ZbKnSl6fD9QuoFX68zu5YZi2Mf27-4qPXbXax9OHd8b1WUB7b2jASz3vMwH7vxD6ftFy6rsntr1tes-8iANkzYzxw7J1hR6AE-BbG6RgzuAoLMF6y7_stTyIJO2WWU6omnLAjzljwzBG7hIQaO4E2yUvdJbxciXSnlf5qa5IYxW4m-CYIdLkjVZOQwGSYyzb119ZEqdw4ff29-a5N78gmz8DU85auiUZwWziWnmm0P5hq4V0ThsMlgbwod7TsuaRmWrcH3fJzeNvougvaxFFmvYY8lB7VDsnU8-cf5tm5_6k0mbbDOpgdLw3c97lPcYGTqNAy_S3McCaeMu4Z4Gomnp5SXrruMkt9vXiew6HBmnKu3KBcy6boUBQwzg8tZRlEeyrDSUPteA-_TwdupJKjuEi1LGvjZ_TR2vcsYbGtoECPZlUgMCcOFCO4GwnuKbjclW4oZq-6PTZYXoeygLHqLVPh4YH9OOaLJSepnMgX5cXdHMm04DYRZdTf-kVO5wCRVnrzNMVUwH6fYgIX3aYkzzk0JbCirLxVEqMvtj_ioe8LEQlRtRpDaVJijdAak8p_2bgVdGvCcPZOs6LTAvzNWXH3OE2_w8zGoMdz01GZidIifKL5Tj_zWI_S7Kszu4rMF34grHC8P3NKNoQwLsAUi1Pfl26mppn_0VbtYZwKlBxCmcU1lZFyQFVMITe0_CaNuYB-lNvV1P-YdbDaFHFfKyjVLPlpN2C4pd72kfuOJywq2tRFJmjicYl7-PMKzGtjAlkAFJx7W1O8bto2ybXhFq3K3lObUJsTcrYzGRFlGA5bRreCPJFHtxhFvxdrsa3PBk_C_?></g></svg>