<?plantuml 1.2026.1?><svg xmlns="http://www.w3.org/2000/svg" xmlns:xlink="http://www.w3.org/1999/xlink" contentStyleType="text/css" data-diagram-type="SALT" height="328px" preserveAspectRatio="none" style="width:555px;height:328px;background:#FFFFFF;" version="1.1" viewBox="0 0 555 328" width="555px" zoomAndPan="magnify"><title>Threat Vector to Defense Layer Coverage Matrix</title><defs/><g><g class="title" data-source-line="4"><text fill="#000000" font-family="'Segoe UI'" font-size="14" font-weight="bold" lengthAdjust="spacing" textLength="347.0264" x="102.5776" y="28.5352">Threat Vector to Defense Layer Coverage Matrix</text></g><text fill="#000000" font-family="sans-serif" font-size="12" font-weight="bold" lengthAdjust="spacing" textLength="83.3379" x="6" y="55.0898">Attack Vector</text><text fill="#000000" font-family="sans-serif" font-size="12" font-weight="bold" lengthAdjust="spacing" textLength="38.7656" x="123.5879" y="55.0898">bwrap</text><text fill="#000000" font-family="sans-serif" font-size="12" font-weight="bold" lengthAdjust="spacing" textLength="49.5527" x="167.0723" y="55.0898">Seatbelt</text><text fill="#000000" font-family="sans-serif" font-size="12" font-weight="bold" lengthAdjust="spacing" textLength="40.1074" x="218.625" y="55.0898">gVisor</text><text fill="#000000" font-family="sans-serif" font-size="12" font-weight="bold" lengthAdjust="spacing" textLength="68.6426" x="262.1094" y="55.0898">Firecracker</text><text fill="#000000" font-family="sans-serif" font-size="12" font-weight="bold" lengthAdjust="spacing" textLength="37.4297" x="332.752" y="55.0898">WASM</text><text fill="#000000" font-family="sans-serif" font-size="12" font-weight="bold" lengthAdjust="spacing" textLength="55.9395" x="376.2363" y="55.0898">Worktree</text><text fill="#000000" font-family="sans-serif" font-size="12" font-weight="bold" lengthAdjust="spacing" textLength="41.0801" x="434.1758" y="55.0898">Lattice</text><text fill="#000000" font-family="sans-serif" font-size="12" font-weight="bold" lengthAdjust="spacing" textLength="69.5215" x="477.6602" y="55.0898">HTTP Hook</text><text fill="#000000" font-family="sans-serif" font-size="12" lengthAdjust="spacing" textLength="113.666" x="6" y="71.2227">Command Injection</text><text fill="#006600" font-family="sans-serif" font-size="12" font-weight="bold" lengthAdjust="spacing" textLength="41.4844" x="123.5879" y="71.2227">BLOCK</text><text fill="#006600" font-family="sans-serif" font-size="12" font-weight="bold" lengthAdjust="spacing" textLength="41.4844" x="167.0723" y="71.2227">BLOCK</text><text fill="#006600" font-family="sans-serif" font-size="12" font-weight="bold" lengthAdjust="spacing" textLength="41.4844" x="218.625" y="71.2227">BLOCK</text><text fill="#006600" font-family="sans-serif" font-size="12" font-weight="bold" lengthAdjust="spacing" textLength="41.4844" x="262.1094" y="71.2227">BLOCK</text><text fill="#000000" font-family="sans-serif" font-size="12" lengthAdjust="spacing" textLength="82.1367" x="6" y="87.3555">Path Traversal</text><text fill="#006600" font-family="sans-serif" font-size="12" font-weight="bold" lengthAdjust="spacing" textLength="41.4844" x="123.5879" y="87.3555">BLOCK</text><text fill="#006600" font-family="sans-serif" font-size="12" font-weight="bold" lengthAdjust="spacing" textLength="41.4844" x="332.752" y="87.3555">BLOCK</text><text fill="#006600" font-family="sans-serif" font-size="12" font-weight="bold" lengthAdjust="spacing" textLength="41.4844" x="376.2363" y="87.3555">BLOCK</text><text fill="#000000" font-family="sans-serif" font-size="12" lengthAdjust="spacing" textLength="92.8477" x="6" y="103.4883">SSRF (metadata)</text><text fill="#006600" font-family="sans-serif" font-size="12" font-weight="bold" lengthAdjust="spacing" textLength="41.4844" x="123.5879" y="103.4883">BLOCK</text><text fill="#006600" font-family="sans-serif" font-size="12" font-weight="bold" lengthAdjust="spacing" textLength="41.4844" x="218.625" y="103.4883">BLOCK</text><text fill="#006600" font-family="sans-serif" font-size="12" font-weight="bold" lengthAdjust="spacing" textLength="41.4844" x="262.1094" y="103.4883">BLOCK</text><text fill="#CC9900" font-family="sans-serif" font-size="12" font-weight="bold" lengthAdjust="spacing" textLength="40.1836" x="477.6602" y="103.4883">partial</text><text fill="#000000" font-family="sans-serif" font-size="12" lengthAdjust="spacing" textLength="106.9102" x="6" y="119.6211">Kernel CVE Escape</text><text fill="#006600" font-family="sans-serif" font-size="12" font-weight="bold" lengthAdjust="spacing" textLength="41.4844" x="218.625" y="119.6211">BLOCK</text><text fill="#006600" font-family="sans-serif" font-size="12" font-weight="bold" lengthAdjust="spacing" textLength="41.4844" x="262.1094" y="119.6211">BLOCK</text><text fill="#000000" font-family="sans-serif" font-size="12" lengthAdjust="spacing" textLength="115.5879" x="6" y="135.7539">Supply Chain Plugin</text><text fill="#006600" font-family="sans-serif" font-size="12" font-weight="bold" lengthAdjust="spacing" textLength="41.4844" x="332.752" y="135.7539">BLOCK</text><text fill="#000000" font-family="sans-serif" font-size="12" lengthAdjust="spacing" textLength="108.5918" x="6" y="151.8867">Config Downgrade</text><text fill="#006600" font-family="sans-serif" font-size="12" font-weight="bold" lengthAdjust="spacing" textLength="41.4844" x="434.1758" y="151.8867">BLOCK</text><text fill="#000000" font-family="sans-serif" font-size="12" lengthAdjust="spacing" textLength="108.9551" x="6" y="168.0195">Parallel Corruption</text><text fill="#006600" font-family="sans-serif" font-size="12" font-weight="bold" lengthAdjust="spacing" textLength="41.4844" x="376.2363" y="168.0195">BLOCK</text><text fill="#000000" font-family="sans-serif" font-size="12" lengthAdjust="spacing" textLength="98.3203" x="6" y="184.1523">Host fetch() SSRF</text><text fill="#006600" font-family="sans-serif" font-size="12" font-weight="bold" lengthAdjust="spacing" textLength="41.4844" x="332.752" y="184.1523">BLOCK</text><text fill="#CC9900" font-family="sans-serif" font-size="12" font-weight="bold" lengthAdjust="spacing" textLength="40.1836" x="477.6602" y="184.1523">partial</text><line style="stroke:#000000;stroke-width:1;" x1="5" x2="122.5879" y1="42.4883" y2="42.4883"/><line style="stroke:#000000;stroke-width:1;" x1="476.6602" x2="548.1816" y1="171.5508" y2="171.5508"/><line style="stroke:#000000;stroke-width:1;" x1="122.5879" x2="166.0723" y1="42.4883" y2="42.4883"/><line style="stroke:#000000;stroke-width:1;" x1="166.0723" x2="217.625" y1="42.4883" y2="42.4883"/><line style="stroke:#000000;stroke-width:1;" x1="217.625" x2="261.1094" y1="42.4883" y2="42.4883"/><line style="stroke:#000000;stroke-width:1;" x1="261.1094" x2="331.752" y1="42.4883" y2="42.4883"/><line style="stroke:#000000;stroke-width:1;" x1="331.752" x2="375.2363" y1="42.4883" y2="42.4883"/><line style="stroke:#000000;stroke-width:1;" x1="375.2363" x2="433.1758" y1="42.4883" y2="42.4883"/><line style="stroke:#000000;stroke-width:1;" x1="433.1758" x2="476.6602" y1="42.4883" y2="42.4883"/><line style="stroke:#000000;stroke-width:1;" x1="476.6602" x2="548.1816" y1="42.4883" y2="42.4883"/><line style="stroke:#000000;stroke-width:1;" x1="5" x2="122.5879" y1="90.8867" y2="90.8867"/><line style="stroke:#000000;stroke-width:1;" x1="122.5879" x2="166.0723" y1="90.8867" y2="90.8867"/><line style="stroke:#000000;stroke-width:1;" x1="166.0723" x2="217.625" y1="90.8867" y2="90.8867"/><line style="stroke:#000000;stroke-width:1;" x1="217.625" x2="261.1094" y1="90.8867" y2="90.8867"/><line style="stroke:#000000;stroke-width:1;" x1="261.1094" x2="331.752" y1="90.8867" y2="90.8867"/><line style="stroke:#000000;stroke-width:1;" x1="331.752" x2="375.2363" y1="90.8867" y2="90.8867"/><line style="stroke:#000000;stroke-width:1;" x1="375.2363" x2="433.1758" y1="90.8867" y2="90.8867"/><line style="stroke:#000000;stroke-width:1;" x1="433.1758" x2="476.6602" y1="90.8867" y2="90.8867"/><line style="stroke:#000000;stroke-width:1;" x1="476.6602" x2="548.1816" y1="90.8867" y2="90.8867"/><line style="stroke:#000000;stroke-width:1;" x1="5" x2="122.5879" y1="139.2852" y2="139.2852"/><line style="stroke:#000000;stroke-width:1;" x1="122.5879" x2="166.0723" y1="139.2852" y2="139.2852"/><line style="stroke:#000000;stroke-width:1;" x1="166.0723" x2="217.625" y1="139.2852" y2="139.2852"/><line style="stroke:#000000;stroke-width:1;" x1="217.625" x2="261.1094" y1="139.2852" y2="139.2852"/><line style="stroke:#000000;stroke-width:1;" x1="261.1094" x2="331.752" y1="139.2852" y2="139.2852"/><line style="stroke:#000000;stroke-width:1;" x1="331.752" x2="375.2363" y1="139.2852" y2="139.2852"/><line style="stroke:#000000;stroke-width:1;" x1="375.2363" x2="433.1758" y1="139.2852" y2="139.2852"/><line style="stroke:#000000;stroke-width:1;" x1="433.1758" x2="476.6602" y1="139.2852" y2="139.2852"/><line style="stroke:#000000;stroke-width:1;" x1="476.6602" x2="548.1816" y1="139.2852" y2="139.2852"/><line style="stroke:#000000;stroke-width:1;" x1="5" x2="122.5879" y1="187.6836" y2="187.6836"/><line style="stroke:#000000;stroke-width:1;" x1="122.5879" x2="166.0723" y1="187.6836" y2="187.6836"/><line style="stroke:#000000;stroke-width:1;" x1="166.0723" x2="217.625" y1="187.6836" y2="187.6836"/><line style="stroke:#000000;stroke-width:1;" x1="217.625" x2="261.1094" y1="187.6836" y2="187.6836"/><line style="stroke:#000000;stroke-width:1;" x1="261.1094" x2="331.752" y1="187.6836" y2="187.6836"/><line style="stroke:#000000;stroke-width:1;" x1="331.752" x2="375.2363" y1="187.6836" y2="187.6836"/><line style="stroke:#000000;stroke-width:1;" x1="375.2363" x2="433.1758" y1="187.6836" y2="187.6836"/><line style="stroke:#000000;stroke-width:1;" x1="433.1758" x2="476.6602" y1="187.6836" y2="187.6836"/><line style="stroke:#000000;stroke-width:1;" x1="476.6602" x2="548.1816" y1="187.6836" y2="187.6836"/><line style="stroke:#000000;stroke-width:1;" x1="5" x2="122.5879" y1="58.6211" y2="58.6211"/><line style="stroke:#000000;stroke-width:1;" x1="122.5879" x2="166.0723" y1="58.6211" y2="58.6211"/><line style="stroke:#000000;stroke-width:1;" x1="166.0723" x2="217.625" y1="58.6211" y2="58.6211"/><line style="stroke:#000000;stroke-width:1;" x1="217.625" x2="261.1094" y1="58.6211" y2="58.6211"/><line style="stroke:#000000;stroke-width:1;" x1="261.1094" x2="331.752" y1="58.6211" y2="58.6211"/><line style="stroke:#000000;stroke-width:1;" x1="331.752" x2="375.2363" y1="58.6211" y2="58.6211"/><line style="stroke:#000000;stroke-width:1;" x1="375.2363" x2="433.1758" y1="58.6211" y2="58.6211"/><line style="stroke:#000000;stroke-width:1;" x1="433.1758" x2="476.6602" y1="58.6211" y2="58.6211"/><line style="stroke:#000000;stroke-width:1;" x1="476.6602" x2="548.1816" y1="58.6211" y2="58.6211"/><line style="stroke:#000000;stroke-width:1;" x1="5" x2="122.5879" y1="107.0195" y2="107.0195"/><line style="stroke:#000000;stroke-width:1;" x1="122.5879" x2="166.0723" y1="107.0195" y2="107.0195"/><line style="stroke:#000000;stroke-width:1;" x1="166.0723" x2="217.625" y1="107.0195" y2="107.0195"/><line style="stroke:#000000;stroke-width:1;" x1="217.625" x2="261.1094" y1="107.0195" y2="107.0195"/><line style="stroke:#000000;stroke-width:1;" x1="261.1094" x2="331.752" y1="107.0195" y2="107.0195"/><line style="stroke:#000000;stroke-width:1;" x1="331.752" x2="375.2363" y1="107.0195" y2="107.0195"/><line style="stroke:#000000;stroke-width:1;" x1="375.2363" x2="433.1758" y1="107.0195" y2="107.0195"/><line style="stroke:#000000;stroke-width:1;" x1="433.1758" x2="476.6602" y1="107.0195" y2="107.0195"/><line style="stroke:#000000;stroke-width:1;" x1="476.6602" x2="548.1816" y1="107.0195" y2="107.0195"/><line style="stroke:#000000;stroke-width:1;" x1="5" x2="122.5879" y1="155.418" y2="155.418"/><line style="stroke:#000000;stroke-width:1;" x1="122.5879" x2="166.0723" y1="155.418" y2="155.418"/><line style="stroke:#000000;stroke-width:1;" x1="166.0723" x2="217.625" y1="155.418" y2="155.418"/><line style="stroke:#000000;stroke-width:1;" x1="217.625" x2="261.1094" y1="155.418" y2="155.418"/><line style="stroke:#000000;stroke-width:1;" x1="261.1094" x2="331.752" y1="155.418" y2="155.418"/><line style="stroke:#000000;stroke-width:1;" x1="331.752" x2="375.2363" y1="155.418" y2="155.418"/><line style="stroke:#000000;stroke-width:1;" x1="375.2363" x2="433.1758" y1="155.418" y2="155.418"/><line style="stroke:#000000;stroke-width:1;" x1="433.1758" x2="476.6602" y1="155.418" y2="155.418"/><line style="stroke:#000000;stroke-width:1;" x1="476.6602" x2="548.1816" y1="155.418" y2="155.418"/><line style="stroke:#000000;stroke-width:1;" x1="5" x2="122.5879" y1="74.7539" y2="74.7539"/><line style="stroke:#000000;stroke-width:1;" x1="122.5879" x2="166.0723" y1="74.7539" y2="74.7539"/><line style="stroke:#000000;stroke-width:1;" x1="166.0723" x2="217.625" y1="74.7539" y2="74.7539"/><line style="stroke:#000000;stroke-width:1;" x1="217.625" x2="261.1094" y1="74.7539" y2="74.7539"/><line style="stroke:#000000;stroke-width:1;" x1="261.1094" x2="331.752" y1="74.7539" y2="74.7539"/><line style="stroke:#000000;stroke-width:1;" x1="331.752" x2="375.2363" y1="74.7539" y2="74.7539"/><line style="stroke:#000000;stroke-width:1;" x1="375.2363" x2="433.1758" y1="74.7539" y2="74.7539"/><line style="stroke:#000000;stroke-width:1;" x1="433.1758" x2="476.6602" y1="74.7539" y2="74.7539"/><line style="stroke:#000000;stroke-width:1;" x1="476.6602" x2="548.1816" y1="74.7539" y2="74.7539"/><line style="stroke:#000000;stroke-width:1;" x1="5" x2="122.5879" y1="123.1523" y2="123.1523"/><line style="stroke:#000000;stroke-width:1;" x1="122.5879" x2="166.0723" y1="123.1523" y2="123.1523"/><line style="stroke:#000000;stroke-width:1;" x1="166.0723" x2="217.625" y1="123.1523" y2="123.1523"/><line style="stroke:#000000;stroke-width:1;" x1="217.625" x2="261.1094" y1="123.1523" y2="123.1523"/><line style="stroke:#000000;stroke-width:1;" x1="261.1094" x2="331.752" y1="123.1523" y2="123.1523"/><line style="stroke:#000000;stroke-width:1;" x1="331.752" x2="375.2363" y1="123.1523" y2="123.1523"/><line style="stroke:#000000;stroke-width:1;" x1="375.2363" x2="433.1758" y1="123.1523" y2="123.1523"/><line style="stroke:#000000;stroke-width:1;" x1="433.1758" x2="476.6602" y1="123.1523" y2="123.1523"/><line style="stroke:#000000;stroke-width:1;" x1="476.6602" x2="548.1816" y1="123.1523" y2="123.1523"/><line style="stroke:#000000;stroke-width:1;" x1="5" x2="122.5879" y1="171.5508" y2="171.5508"/><line style="stroke:#000000;stroke-width:1;" x1="122.5879" x2="166.0723" y1="171.5508" y2="171.5508"/><line style="stroke:#000000;stroke-width:1;" x1="166.0723" x2="217.625" y1="171.5508" y2="171.5508"/><line style="stroke:#000000;stroke-width:1;" x1="217.625" x2="261.1094" y1="171.5508" y2="171.5508"/><line style="stroke:#000000;stroke-width:1;" x1="261.1094" x2="331.752" y1="171.5508" y2="171.5508"/><line style="stroke:#000000;stroke-width:1;" x1="331.752" x2="375.2363" y1="171.5508" y2="171.5508"/><line style="stroke:#000000;stroke-width:1;" x1="375.2363" x2="433.1758" y1="171.5508" y2="171.5508"/><line style="stroke:#000000;stroke-width:1;" x1="433.1758" x2="476.6602" y1="171.5508" y2="171.5508"/><line style="stroke:#000000;stroke-width:1;" x1="5" x2="5" y1="42.4883" y2="58.6211"/><line style="stroke:#000000;stroke-width:1;" x1="476.6602" x2="476.6602" y1="171.5508" y2="187.6836"/><line style="stroke:#000000;stroke-width:1;" x1="548.1816" x2="548.1816" y1="171.5508" y2="187.6836"/><line style="stroke:#000000;stroke-width:1;" x1="122.5879" x2="122.5879" y1="42.4883" y2="58.6211"/><line style="stroke:#000000;stroke-width:1;" x1="166.0723" x2="166.0723" y1="42.4883" y2="58.6211"/><line style="stroke:#000000;stroke-width:1;" x1="217.625" x2="217.625" y1="42.4883" y2="58.6211"/><line style="stroke:#000000;stroke-width:1;" x1="261.1094" x2="261.1094" y1="42.4883" y2="58.6211"/><line style="stroke:#000000;stroke-width:1;" x1="331.752" x2="331.752" y1="42.4883" y2="58.6211"/><line style="stroke:#000000;stroke-width:1;" x1="375.2363" x2="375.2363" y1="42.4883" y2="58.6211"/><line style="stroke:#000000;stroke-width:1;" x1="433.1758" x2="433.1758" y1="42.4883" y2="58.6211"/><line style="stroke:#000000;stroke-width:1;" x1="476.6602" x2="476.6602" y1="42.4883" y2="58.6211"/><line style="stroke:#000000;stroke-width:1;" x1="548.1816" x2="548.1816" y1="42.4883" y2="58.6211"/><line style="stroke:#000000;stroke-width:1;" x1="5" x2="5" y1="90.8867" y2="107.0195"/><line style="stroke:#000000;stroke-width:1;" x1="122.5879" x2="122.5879" y1="90.8867" y2="107.0195"/><line style="stroke:#000000;stroke-width:1;" x1="166.0723" x2="166.0723" y1="90.8867" y2="107.0195"/><line style="stroke:#000000;stroke-width:1;" x1="217.625" x2="217.625" y1="90.8867" y2="107.0195"/><line style="stroke:#000000;stroke-width:1;" x1="261.1094" x2="261.1094" y1="90.8867" y2="107.0195"/><line style="stroke:#000000;stroke-width:1;" x1="331.752" x2="331.752" y1="90.8867" y2="107.0195"/><line style="stroke:#000000;stroke-width:1;" x1="375.2363" x2="375.2363" y1="90.8867" y2="107.0195"/><line style="stroke:#000000;stroke-width:1;" x1="433.1758" x2="433.1758" y1="90.8867" y2="107.0195"/><line style="stroke:#000000;stroke-width:1;" x1="476.6602" x2="476.6602" y1="90.8867" y2="107.0195"/><line style="stroke:#000000;stroke-width:1;" x1="548.1816" x2="548.1816" y1="90.8867" y2="107.0195"/><line style="stroke:#000000;stroke-width:1;" x1="5" x2="5" y1="139.2852" y2="155.418"/><line style="stroke:#000000;stroke-width:1;" x1="122.5879" x2="122.5879" y1="139.2852" y2="155.418"/><line style="stroke:#000000;stroke-width:1;" x1="166.0723" x2="166.0723" y1="139.2852" y2="155.418"/><line style="stroke:#000000;stroke-width:1;" x1="217.625" x2="217.625" y1="139.2852" y2="155.418"/><line style="stroke:#000000;stroke-width:1;" x1="261.1094" x2="261.1094" y1="139.2852" y2="155.418"/><line style="stroke:#000000;stroke-width:1;" x1="331.752" x2="331.752" y1="139.2852" y2="155.418"/><line style="stroke:#000000;stroke-width:1;" x1="375.2363" x2="375.2363" y1="139.2852" y2="155.418"/><line style="stroke:#000000;stroke-width:1;" x1="433.1758" x2="433.1758" y1="139.2852" y2="155.418"/><line style="stroke:#000000;stroke-width:1;" x1="476.6602" x2="476.6602" y1="139.2852" y2="155.418"/><line style="stroke:#000000;stroke-width:1;" x1="548.1816" x2="548.1816" y1="139.2852" y2="155.418"/><line style="stroke:#000000;stroke-width:1;" x1="5" x2="5" y1="58.6211" y2="74.7539"/><line style="stroke:#000000;stroke-width:1;" x1="122.5879" x2="122.5879" y1="58.6211" y2="74.7539"/><line style="stroke:#000000;stroke-width:1;" x1="166.0723" x2="166.0723" y1="58.6211" y2="74.7539"/><line style="stroke:#000000;stroke-width:1;" x1="217.625" x2="217.625" y1="58.6211" y2="74.7539"/><line style="stroke:#000000;stroke-width:1;" x1="261.1094" x2="261.1094" y1="58.6211" y2="74.7539"/><line style="stroke:#000000;stroke-width:1;" x1="331.752" x2="331.752" y1="58.6211" y2="74.7539"/><line style="stroke:#000000;stroke-width:1;" x1="375.2363" x2="375.2363" y1="58.6211" y2="74.7539"/><line style="stroke:#000000;stroke-width:1;" x1="433.1758" x2="433.1758" y1="58.6211" y2="74.7539"/><line style="stroke:#000000;stroke-width:1;" x1="476.6602" x2="476.6602" y1="58.6211" y2="74.7539"/><line style="stroke:#000000;stroke-width:1;" x1="548.1816" x2="548.1816" y1="58.6211" y2="74.7539"/><line style="stroke:#000000;stroke-width:1;" x1="5" x2="5" y1="107.0195" y2="123.1523"/><line style="stroke:#000000;stroke-width:1;" x1="122.5879" x2="122.5879" y1="107.0195" y2="123.1523"/><line style="stroke:#000000;stroke-width:1;" x1="166.0723" x2="166.0723" y1="107.0195" y2="123.1523"/><line style="stroke:#000000;stroke-width:1;" x1="217.625" x2="217.625" y1="107.0195" y2="123.1523"/><line style="stroke:#000000;stroke-width:1;" x1="261.1094" x2="261.1094" y1="107.0195" y2="123.1523"/><line style="stroke:#000000;stroke-width:1;" x1="331.752" x2="331.752" y1="107.0195" y2="123.1523"/><line style="stroke:#000000;stroke-width:1;" x1="375.2363" x2="375.2363" y1="107.0195" y2="123.1523"/><line style="stroke:#000000;stroke-width:1;" x1="433.1758" x2="433.1758" y1="107.0195" y2="123.1523"/><line style="stroke:#000000;stroke-width:1;" x1="476.6602" x2="476.6602" y1="107.0195" y2="123.1523"/><line style="stroke:#000000;stroke-width:1;" x1="548.1816" x2="548.1816" y1="107.0195" y2="123.1523"/><line style="stroke:#000000;stroke-width:1;" x1="5" x2="5" y1="155.418" y2="171.5508"/><line style="stroke:#000000;stroke-width:1;" x1="122.5879" x2="122.5879" y1="155.418" y2="171.5508"/><line style="stroke:#000000;stroke-width:1;" x1="166.0723" x2="166.0723" y1="155.418" y2="171.5508"/><line style="stroke:#000000;stroke-width:1;" x1="217.625" x2="217.625" y1="155.418" y2="171.5508"/><line style="stroke:#000000;stroke-width:1;" x1="261.1094" x2="261.1094" y1="155.418" y2="171.5508"/><line style="stroke:#000000;stroke-width:1;" x1="331.752" x2="331.752" y1="155.418" y2="171.5508"/><line style="stroke:#000000;stroke-width:1;" x1="375.2363" x2="375.2363" y1="155.418" y2="171.5508"/><line style="stroke:#000000;stroke-width:1;" x1="433.1758" x2="433.1758" y1="155.418" y2="171.5508"/><line style="stroke:#000000;stroke-width:1;" x1="476.6602" x2="476.6602" y1="155.418" y2="171.5508"/><line style="stroke:#000000;stroke-width:1;" x1="548.1816" x2="548.1816" y1="155.418" y2="171.5508"/><line style="stroke:#000000;stroke-width:1;" x1="5" x2="5" y1="74.7539" y2="90.8867"/><line style="stroke:#000000;stroke-width:1;" x1="122.5879" x2="122.5879" y1="74.7539" y2="90.8867"/><line style="stroke:#000000;stroke-width:1;" x1="166.0723" x2="166.0723" y1="74.7539" y2="90.8867"/><line style="stroke:#000000;stroke-width:1;" x1="217.625" x2="217.625" y1="74.7539" y2="90.8867"/><line style="stroke:#000000;stroke-width:1;" x1="261.1094" x2="261.1094" y1="74.7539" y2="90.8867"/><line style="stroke:#000000;stroke-width:1;" x1="331.752" x2="331.752" y1="74.7539" y2="90.8867"/><line style="stroke:#000000;stroke-width:1;" x1="375.2363" x2="375.2363" y1="74.7539" y2="90.8867"/><line style="stroke:#000000;stroke-width:1;" x1="433.1758" x2="433.1758" y1="74.7539" y2="90.8867"/><line style="stroke:#000000;stroke-width:1;" x1="476.6602" x2="476.6602" y1="74.7539" y2="90.8867"/><line style="stroke:#000000;stroke-width:1;" x1="548.1816" x2="548.1816" y1="74.7539" y2="90.8867"/><line style="stroke:#000000;stroke-width:1;" x1="5" x2="5" y1="123.1523" y2="139.2852"/><line style="stroke:#000000;stroke-width:1;" x1="122.5879" x2="122.5879" y1="123.1523" y2="139.2852"/><line style="stroke:#000000;stroke-width:1;" x1="166.0723" x2="166.0723" y1="123.1523" y2="139.2852"/><line style="stroke:#000000;stroke-width:1;" x1="217.625" x2="217.625" y1="123.1523" y2="139.2852"/><line style="stroke:#000000;stroke-width:1;" x1="261.1094" x2="261.1094" y1="123.1523" y2="139.2852"/><line style="stroke:#000000;stroke-width:1;" x1="331.752" x2="331.752" y1="123.1523" y2="139.2852"/><line style="stroke:#000000;stroke-width:1;" x1="375.2363" x2="375.2363" y1="123.1523" y2="139.2852"/><line style="stroke:#000000;stroke-width:1;" x1="433.1758" x2="433.1758" y1="123.1523" y2="139.2852"/><line style="stroke:#000000;stroke-width:1;" x1="476.6602" x2="476.6602" y1="123.1523" y2="139.2852"/><line style="stroke:#000000;stroke-width:1;" x1="548.1816" x2="548.1816" y1="123.1523" y2="139.2852"/><line style="stroke:#000000;stroke-width:1;" x1="5" x2="5" y1="171.5508" y2="187.6836"/><line style="stroke:#000000;stroke-width:1;" x1="122.5879" x2="122.5879" y1="171.5508" y2="187.6836"/><line style="stroke:#000000;stroke-width:1;" x1="166.0723" x2="166.0723" y1="171.5508" y2="187.6836"/><line style="stroke:#000000;stroke-width:1;" x1="217.625" x2="217.625" y1="171.5508" y2="187.6836"/><line style="stroke:#000000;stroke-width:1;" x1="261.1094" x2="261.1094" y1="171.5508" y2="187.6836"/><line style="stroke:#000000;stroke-width:1;" x1="331.752" x2="331.752" y1="171.5508" y2="187.6836"/><line style="stroke:#000000;stroke-width:1;" x1="375.2363" x2="375.2363" y1="171.5508" y2="187.6836"/><line style="stroke:#000000;stroke-width:1;" x1="433.1758" x2="433.1758" y1="171.5508" y2="187.6836"/><g class="legend" data-source-line="19"><rect fill="#DDDDDD" height="108.9297" rx="7.5" ry="7.5" style="stroke:#000000;stroke-width:1;" width="436.5625" x="98.6191" y="199.6836"/><text fill="#006600" font-family="'Segoe UI'" font-size="14" font-weight="bold" lengthAdjust="spacing" textLength="48.3984" x="103.6191" y="218.2188">BLOCK</text><text fill="#000000" font-family="'Segoe UI'" font-size="14" lengthAdjust="spacing" textLength="200.2861" x="160.877" y="218.2188">= Fully mitigated at this layer</text><text fill="#CC9900" font-family="'Segoe UI'" font-size="14" font-weight="bold" lengthAdjust="spacing" textLength="46.8809" x="103.6191" y="234.707">partial</text><text fill="#000000" font-family="'Segoe UI'" font-size="14" lengthAdjust="spacing" textLength="216.4805" x="154.9297" y="234.707">= Advisory-only (software gate)</text><text fill="#000000" font-family="'Segoe UI'" font-size="14" lengthAdjust="spacing" textLength="148.6133" x="103.6191" y="251.1953">.       = Not applicable</text><text fill="#000000" font-family="'Segoe UI'" font-size="14" lengthAdjust="spacing" textLength="4.4297" x="103.6191" y="267.6836">&#160;</text><text fill="#000000" font-family="'Segoe UI'" font-size="14" lengthAdjust="spacing" textLength="356.501" x="103.6191" y="284.1719">Defense layers compose: bwrap + worktree + lattice</text><text fill="#000000" font-family="'Segoe UI'" font-size="14" lengthAdjust="spacing" textLength="426.5625" x="103.6191" y="300.6602">gives filesystem, network, and config isolation simultaneously.</text></g><?plantuml-src nLJlRzem4Ftkl-BKVe6ieqoQAhMYI2mjeYhjqCBOvoEv91wE7TaNAFlnly-1iA6fcigwQf4ZdUDxpvVdytCBgKkqM412ALQAXqPp9ByGl7aht6EBzrWG74MK6OAFDqT2i6H5CCqj8SECOZOMsC0LfQGTmHZNP24qIxAO4TmXM_aWX4F5ukkn2881CyQB1Xa4y0s2OBwoM3Pnv7ddfBYPPZFfVkODfQNOUZZjldmQH7UxqDW5Mw9cEaPc6Uzce-bq0YDZ5a4WGbCKg1EuqPzz4T9edz6BZJBsuhZRFJlhTlkzUV_T-7ruspkTztkdcxN-VydgxBzYWfp3rA8NrmlwLoJ_l3WHHH-6q2g8CK76za7ebv9gXmZ3y_CjmZSsIrJx675BLfE2S7ODrox6abvIfrzwLMMfrX3cA3LCL9L9_NlEuSo-gNKgCxWoAvrPJEWHoWEfVRTPLAeMo5XRbSrDwJolM34oZY4bZlDM6pQzyzoVVzfXVnT2KKR-tbkPvIpWIRl09GmhvO-ha2mpP4h0snxdqe6gdMwFve_RUvv1igojRFtQQC_NSYRb5Lg2chNjUJgmVIxXtZ2WRn8PuroHN_9Zvw-RNHt4fYYDemlOM2UyWbNZVZvKM-Vpe4mkoK4g5RcrOofEG1FNcITG6s2yxHbVbOVKf-jauMqVDPdAgNL7UBMsceaV?></g></svg>