<?plantuml 1.2026.2?><svg xmlns="http://www.w3.org/2000/svg" xmlns:xlink="http://www.w3.org/1999/xlink" contentStyleType="text/css" data-diagram-type="DESCRIPTION" height="380px" preserveAspectRatio="none" style="width:973px;height:380px;background:#FFFFFF;" version="1.1" viewBox="0 0 973 380" width="973px" zoomAndPan="magnify"><title>Capability Access: Host Process vs WASM Module</title><defs/><g><g class="title" data-source-line="8"><text fill="#000000" font-family="Verdana" font-size="22" font-weight="bold" lengthAdjust="spacing" textLength="607.9219" x="178.1627" y="37.1182">Capability Access: Host Process vs WASM Module</text></g><!--cluster HP--><g class="cluster" data-qualified-name="HP" data-source-line="10" id="ent0002"><path d="M71.5,58.7373 L313.2891,58.7373 A3.75,3.75 0 0 1 315.7891,61.2373 L322.7891,81.752 L741.5,81.752 A2.5,2.5 0 0 1 744,84.252 L744,178.2673 A2.5,2.5 0 0 1 741.5,180.7673 L71.5,180.7673 A2.5,2.5 0 0 1 69,178.2673 L69,61.2373 A2.5,2.5 0 0 1 71.5,58.7373" fill="#FFEAA7" style="stroke:#000000;stroke-width:1;"/><line style="stroke:#000000;stroke-width:1;" x1="69" x2="322.7891" y1="81.752" y2="81.752"/><text fill="#000000" font-family="Verdana" font-size="14" font-weight="bold" lengthAdjust="spacing" textLength="240.7891" x="73" y="74.8125">Host Process (TypeScript tool)</text></g><!--cluster WM--><g class="cluster" data-qualified-name="WM" data-source-line="17" id="ent0007"><path d="M13.5,251.7673 L252.9854,251.7673 A3.75,3.75 0 0 1 255.4854,254.2673 L262.4854,274.782 L751.5,274.782 A2.5,2.5 0 0 1 754,277.282 L754,371.2973 A2.5,2.5 0 0 1 751.5,373.7973 L13.5,373.7973 A2.5,2.5 0 0 1 11,371.2973 L11,254.2673 A2.5,2.5 0 0 1 13.5,251.7673" fill="#DFE6E9" style="stroke:#000000;stroke-width:1;"/><line style="stroke:#000000;stroke-width:1;" x1="11" x2="262.4854" y1="274.782" y2="274.782"/><text fill="#000000" font-family="Verdana" font-size="14" font-weight="bold" lengthAdjust="spacing" textLength="238.4854" x="15" y="267.8425">WASM Module (Extism plugin)</text></g><!--entity HP1--><g class="entity" data-qualified-name="HP.HP1" data-source-line="11" id="ent0003"><rect fill="#FF7675" height="54.0293" rx="2.5" ry="2.5" style="stroke:#000000;stroke-width:2;" width="121.2266" x="93.39" y="102.7373"/><text fill="#000000" font-family="Verdana" font-size="14" font-weight="bold" lengthAdjust="spacing" textLength="93.9326" x="103.39" y="126.8125">process.env</text><text fill="#000000" font-family="Verdana" font-size="14" lengthAdjust="spacing" textLength="101.2266" x="103.39" y="143.8271">All vars visible</text></g><!--entity HP2--><g class="entity" data-qualified-name="HP.HP2" data-source-line="12" id="ent0004"><rect fill="#FF7675" height="54.0293" rx="2.5" ry="2.5" style="stroke:#000000;stroke-width:2;" width="150.0674" x="229.97" y="102.7373"/><text fill="#000000" font-family="Verdana" font-size="14" font-weight="bold" lengthAdjust="spacing" textLength="55.0156" x="239.97" y="126.8125">fetch()</text><text fill="#000000" font-family="Verdana" font-size="14" lengthAdjust="spacing" textLength="130.0674" x="239.97" y="143.8271">Any URL, any host</text></g><!--entity HP3--><g class="entity" data-qualified-name="HP.HP3" data-source-line="13" id="ent0005"><rect fill="#FF7675" height="54.0293" rx="2.5" ry="2.5" style="stroke:#000000;stroke-width:2;" width="137.5986" x="395.2" y="102.7373"/><text fill="#000000" font-family="Verdana" font-size="14" font-weight="bold" lengthAdjust="spacing" textLength="19.2773" x="405.2" y="126.8125">fs.</text><text fill="#000000" font-family="Verdana" font-size="14" lengthAdjust="spacing" textLength="8.9004" x="424.4773" y="126.8125">*</text><text fill="#000000" font-family="Verdana" font-size="14" lengthAdjust="spacing" textLength="117.5986" x="405.2" y="143.8271">Entire filesystem</text></g><!--entity HP4--><g class="entity" data-qualified-name="HP.HP4" data-source-line="14" id="ent0006"><rect fill="#FF7675" height="54.0293" rx="2.5" ry="2.5" style="stroke:#000000;stroke-width:2;" width="163.5" x="548.25" y="102.7373"/><text fill="#000000" font-family="Verdana" font-size="14" font-weight="bold" lengthAdjust="spacing" textLength="108.0283" x="558.25" y="126.8125">child_process</text><text fill="#000000" font-family="Verdana" font-size="14" lengthAdjust="spacing" textLength="143.5" x="558.25" y="143.8271">Arbitrary commands</text></g><!--entity WM1--><g class="entity" data-qualified-name="WM.WM1" data-source-line="18" id="ent0008"><rect fill="#00B894" height="54.0293" rx="2.5" ry="2.5" style="stroke:#000000;stroke-width:2;" width="138.0156" x="34.99" y="295.7673"/><text fill="#000000" font-family="Verdana" font-size="14" font-weight="bold" lengthAdjust="spacing" textLength="54.6191" x="44.99" y="319.8425">No env</text><text fill="#000000" font-family="Verdana" font-size="14" lengthAdjust="spacing" textLength="118.0156" x="44.99" y="336.8571">API doesn't exist</text></g><!--entity WM2--><g class="entity" data-qualified-name="WM.WM2" data-source-line="19" id="ent0009"><rect fill="#00B894" height="54.0293" rx="2.5" ry="2.5" style="stroke:#000000;stroke-width:2;" width="176.2832" x="187.86" y="295.7673"/><text fill="#000000" font-family="Verdana" font-size="14" font-weight="bold" lengthAdjust="spacing" textLength="131.291" x="197.86" y="319.8425">allowedHosts: []</text><text fill="#000000" font-family="Verdana" font-size="14" lengthAdjust="spacing" textLength="156.2832" x="197.86" y="336.8571">No network by default</text></g><!--entity WM3--><g class="entity" data-qualified-name="WM.WM3" data-source-line="20" id="ent0010"><rect fill="#00B894" height="54.0293" rx="2.5" ry="2.5" style="stroke:#000000;stroke-width:2;" width="190.6455" x="378.68" y="295.7673"/><text fill="#000000" font-family="Verdana" font-size="14" font-weight="bold" lengthAdjust="spacing" textLength="131.2363" x="388.68" y="319.8425">allowedPaths: []</text><text fill="#000000" font-family="Verdana" font-size="14" lengthAdjust="spacing" textLength="170.6455" x="388.68" y="336.8571">No filesystem by default</text></g><!--entity WM4--><g class="entity" data-qualified-name="WM.WM4" data-source-line="21" id="ent0011"><rect fill="#00B894" height="54.0293" rx="2.5" ry="2.5" style="stroke:#000000;stroke-width:2;" width="138.0156" x="583.99" y="295.7673"/><text fill="#000000" font-family="Verdana" font-size="14" font-weight="bold" lengthAdjust="spacing" textLength="63.3965" x="593.99" y="319.8425">No shell</text><text fill="#000000" font-family="Verdana" font-size="14" lengthAdjust="spacing" textLength="118.0156" x="593.99" y="336.8571">API doesn't exist</text></g><g class="entity" data-qualified-name="GMN16" data-source-line="30" id="ent0017"><path d="M767.65,90.7273 L767.65,168.7859 L952.357,168.7859 L952.357,100.7273 L942.357,90.7273 L767.65,90.7273" fill="#FFFFFF" style="stroke:#000000;stroke-width:1;"/><path d="M942.357,90.7273 L942.357,100.7273 L952.357,100.7273 L942.357,90.7273" fill="#FFFFFF" style="stroke:#000000;stroke-width:1;"/><text fill="#FF0000" font-family="Verdana" font-size="14" font-weight="bold" lengthAdjust="spacing" textLength="113.832" x="773.65" y="109.8025">Opt-out model</text><text fill="#000000" font-family="Verdana" font-size="14" lengthAdjust="spacing" textLength="163.707" x="773.65" y="126.8171">Everything is available.</text><text fill="#000000" font-family="Verdana" font-size="14" lengthAdjust="spacing" textLength="158.2588" x="773.65" y="143.8318">Must trust the tool not</text><text fill="#000000" font-family="Verdana" font-size="14" lengthAdjust="spacing" textLength="116.498" x="773.65" y="160.8464">to abuse access.</text></g><g class="entity" data-qualified-name="GMN19" data-source-line="37" id="ent0020"><path d="M777.76,283.7573 L777.76,361.8159 L966.2473,361.8159 L966.2473,293.7573 L956.2473,283.7573 L777.76,283.7573" fill="#FFFFFF" style="stroke:#000000;stroke-width:1;"/><path d="M956.2473,283.7573 L956.2473,293.7573 L966.2473,293.7573 L956.2473,283.7573" fill="#FFFFFF" style="stroke:#000000;stroke-width:1;"/><text fill="#008000" font-family="Verdana" font-size="14" font-weight="bold" lengthAdjust="spacing" textLength="102.6279" x="783.76" y="302.8325">Opt-in model</text><text fill="#000000" font-family="Verdana" font-size="14" lengthAdjust="spacing" textLength="142.9395" x="783.76" y="319.8471">Nothing is available.</text><text fill="#000000" font-family="Verdana" font-size="14" lengthAdjust="spacing" textLength="167.4873" x="783.76" y="336.8618">Each capability requires</text><text fill="#000000" font-family="Verdana" font-size="14" lengthAdjust="spacing" textLength="119.3691" x="783.76" y="353.8764">an explicit grant.</text></g><!--link HP1 to WM1--><g class="link" data-entity-1="ent0003" data-entity-2="ent0008" data-link-type="dependency" data-source-line="24" id="lnk12"><path d="M147.15,156.9173 C137.63,193.2873 122.0087,252.9827 112.4487,289.5227" fill="none" id="HP1-to-WM1" style="stroke:#999999;stroke-width:1;stroke-dasharray:7,7;"/><polygon fill="#999999" points="110.93,295.3273,117.0778,287.6328,112.1956,290.4901,109.3383,285.6079,110.93,295.3273" style="stroke:#999999;stroke-width:1;"/><text fill="#000000" font-family="Verdana" font-size="18" lengthAdjust="spacing" textLength="18" x="134.48" y="223.864">&#8594;</text></g><!--link HP2 to WM2--><g class="link" data-entity-1="ent0004" data-entity-2="ent0009" data-link-type="dependency" data-source-line="25" id="lnk13"><path d="M301.03,156.9173 C295.51,193.2873 286.4594,252.8551 280.9194,289.3951" fill="none" id="HP2-to-WM2" style="stroke:#999999;stroke-width:1;stroke-dasharray:7,7;"/><polygon fill="#999999" points="280.02,295.3273,285.3239,287.0286,280.7695,290.3838,277.4143,285.8294,280.02,295.3273" style="stroke:#999999;stroke-width:1;"/><text fill="#000000" font-family="Verdana" font-size="18" lengthAdjust="spacing" textLength="18" x="294.1" y="223.864">&#8594;</text></g><!--link HP3 to WM3--><g class="link" data-entity-1="ent0005" data-entity-2="ent0010" data-link-type="dependency" data-source-line="26" id="lnk14"><path d="M465.37,156.9173 C467.27,193.2873 470.3868,252.7955 472.2968,289.3355" fill="none" id="HP3-to-WM3" style="stroke:#999999;stroke-width:1;stroke-dasharray:7,7;"/><polygon fill="#999999" points="472.61,295.3273,476.1347,286.1308,472.349,290.3341,468.1457,286.5484,472.61,295.3273" style="stroke:#999999;stroke-width:1;"/><text fill="#000000" font-family="Verdana" font-size="18" lengthAdjust="spacing" textLength="18" x="470" y="223.864">&#8594;</text></g><!--link HP4 to WM4--><g class="link" data-entity-1="ent0006" data-entity-2="ent0011" data-link-type="dependency" data-source-line="27" id="lnk15"><path d="M633.15,156.9173 C637.53,193.2873 644.7043,252.8301 649.0943,289.3701" fill="none" id="HP4-to-WM4" style="stroke:#999999;stroke-width:1;stroke-dasharray:7,7;"/><polygon fill="#999999" points="649.81,295.3273,652.7079,285.9144,649.2136,290.363,644.765,286.8687,649.81,295.3273" style="stroke:#999999;stroke-width:1;"/><text fill="#000000" font-family="Verdana" font-size="18" lengthAdjust="spacing" textLength="18" x="642.5" y="223.864">&#8594;</text></g><!--link HP to GMN16--><g class="link" data-entity-1="ent0002" data-entity-2="ent0017" data-link-type="association" data-source-line="30" id="lnk18"><path d="M744.0826,129.7573 C744.1228,129.7573 744.1631,129.7573 744.2033,129.7573 C746.7772,129.7573 749.3506,129.7573 751.9237,129.7573 C757.07,129.7573 762.215,129.7573 767.36,129.7573" fill="none" id="HP-GMN16" style="stroke:#000000;stroke-width:1;stroke-dasharray:7,7;"/></g><!--link WM to GMN19--><g class="link" data-entity-1="ent0007" data-entity-2="ent0020" data-link-type="association" data-source-line="37" id="lnk21"><path d="M754.0928,322.7873 C754.133,322.7873 754.1732,322.7873 754.2134,322.7873 C756.7875,322.7873 759.3612,322.7873 761.935,322.7873 C767.0825,322.7873 772.23,322.7873 777.38,322.7873" fill="none" id="WM-GMN19" style="stroke:#000000;stroke-width:1;stroke-dasharray:7,7;"/></g><?plantuml-src XLJRJjj047ttLqp9Gy6YWLou98eYfJI8IWsD2bKUAAhMziHUPRFhxeu3RjNNVa0_iL_IiJ7WGaBzODcUSuxFdftPLvJW4Y5LGchFBQHEXHLB24IuYAt9T7HYbB7GE2sl6YB2kSWKdHfD5_8xGgjRAreCIUXOuLjZ8xINYGmN6fs3TWsaJOGEKsWTr9b2BwgF7abI22SY5O5Kad8OXI6BzE7CE8AfDSKRh1pCHXSJc9WeK-XvALiNCSBMFwZjopp5Yz3Ab82CKJjR81oSJOkLZKUZ8_ZX0LyFnc7BzzCxRXFrolU_w95Ii1AM_oYT31HM2YrepET7XqS7pmNcI66olLEITGwVFttO1S4F2JkhsEqNsAxf5zIn9caHvbAXontXig9sDbF3HAheQ-M__BqD95bXSmZDSYbqv2gHxeF8prfqjK1XUtnBqYsvHR9OwhlSPXDel3iT7uvxwt8xDt0VsVGzH0QTVas0jx9QzMp2cUtl1yUzxdEoKChSO5Hi7k_qrNKXmu8QwSRO1GJvVUTLKkt_Iaq59NMfno2VgtKsgp7J9QZKI-lgFj0vpQ8rcbUDNg-t6mccHjVDORdsFWmSZqo_TJpyy-ltOAzu6Nf5Bwo1jpV2E-lWdOtmxZfuTmFSquOGh8mJ0ZFdFk4y1c5n5FGjHiEAqXtw_iUKtfYCOCdJpDbK0eEz4ZnasdY5DgT4wXYa0x4IKWcUdYQN9XbFADdodc0vbtmg45V8W0WoXo3AaMzwgAEYX4-TpIQFpcABg9zwatgpjNEptjTOX0c4Z-UEnMyPZw3Zaj2yuQcIeII8-R2YchM_?></g></svg>