<?plantuml 1.2026.2?><svg xmlns="http://www.w3.org/2000/svg" xmlns:xlink="http://www.w3.org/1999/xlink" contentStyleType="text/css" data-diagram-type="DESCRIPTION" height="590px" preserveAspectRatio="none" style="width:1435px;height:590px;background:#FFFFFF;" version="1.1" viewBox="0 0 1435 590" width="1435px" zoomAndPan="magnify"><title>WASM Capability Model: Opt-In vs Opt-Out</title><defs/><g><g class="title" data-source-line="8"><text fill="#000000" font-family="Verdana" font-size="22" font-weight="bold" lengthAdjust="spacing" textLength="530.041" x="448.3685" y="37.1182">WASM Capability Model: Opt-In vs Opt-Out</text></g><!--cluster HOST--><g class="cluster" data-qualified-name="HOST" data-source-line="10" id="ent0002"><path d="M235.27,102.9773 L459.8598,102.9773 A3.75,3.75 0 0 1 462.3598,105.4773 L469.3598,124.7766 L1090.27,124.7766 A2.5,2.5 0 0 1 1092.77,127.2766 L1092.77,236.0673 A2.5,2.5 0 0 1 1090.27,238.5673 L235.27,238.5673 A2.5,2.5 0 0 1 232.77,236.0673 L232.77,105.4773 A2.5,2.5 0 0 1 235.27,102.9773" fill="#FFEAA7" style="stroke:#000000;stroke-width:2;"/><line style="stroke:#000000;stroke-width:2;" x1="232.77" x2="469.3598" y1="124.7766" y2="124.7766"/><text fill="#000000" font-family="Verdana" font-size="13" font-weight="bold" lengthAdjust="spacing" textLength="223.5898" x="236.77" y="118.0471">Host Process (TypeScript tool)</text></g><!--cluster WASM--><g class="cluster" data-qualified-name="WASM" data-source-line="28" id="ent0015"><path d="M359.27,303.5673 L581.7207,303.5673 A3.75,3.75 0 0 1 584.2207,306.0673 L591.2207,325.3666 L1246.27,325.3666 A2.5,2.5 0 0 1 1248.77,327.8666 L1248.77,452.4673 A2.5,2.5 0 0 1 1246.27,454.9673 L359.27,454.9673 A2.5,2.5 0 0 1 356.77,452.4673 L356.77,306.0673 A2.5,2.5 0 0 1 359.27,303.5673" fill="#DFE6E9" style="stroke:#000000;stroke-width:2;"/><line style="stroke:#000000;stroke-width:2;" x1="356.77" x2="591.2207" y1="325.3666" y2="325.3666"/><text fill="#000000" font-family="Verdana" font-size="13" font-weight="bold" lengthAdjust="spacing" textLength="221.4507" x="360.77" y="318.6371">WASM Module (Extism plugin)</text></g><!--entity TC--><g class="entity" data-qualified-name="HOST.TC" data-source-line="11" id="ent0003"><rect fill="#FDCB6E" height="35.7993" rx="2.5" ry="2.5" style="stroke:#000000;stroke-width:2;" width="84.7397" x="256.4" y="170.8773"/><text fill="#000000" font-family="Verdana" font-size="13" lengthAdjust="spacing" textLength="64.7397" x="266.4" y="193.9471">Tool Code</text></g><!--entity ENV--><g class="entity" data-qualified-name="HOST.ENV" data-source-line="12" id="ent0004"><rect fill="#FF7675" height="51.5986" rx="2.5" ry="2.5" style="stroke:#000000;stroke-width:2;" width="142.1797" x="907.68" y="162.9773"/><text fill="#000000" font-family="Verdana" font-size="13" lengthAdjust="spacing" textLength="77.9937" x="917.68" y="186.0471">process.env</text><text fill="#000000" font-family="Verdana" font-size="13" font-style="italic" lengthAdjust="spacing" textLength="122.1797" x="917.68" y="201.8464">All env vars visible</text></g><!--entity NET--><g class="entity" data-qualified-name="HOST.NET" data-source-line="13" id="ent0005"><rect fill="#FF7675" height="51.5986" rx="2.5" ry="2.5" style="stroke:#000000;stroke-width:2;" width="157.1538" x="715.19" y="162.9773"/><text fill="#000000" font-family="Verdana" font-size="13" lengthAdjust="spacing" textLength="44.2432" x="725.19" y="186.0471">fetch()</text><text fill="#000000" font-family="Verdana" font-size="13" font-style="italic" lengthAdjust="spacing" textLength="137.1538" x="725.19" y="201.8464">Unrestricted network</text></g><!--entity FS--><g class="entity" data-qualified-name="HOST.FS" data-source-line="14" id="ent0006"><rect fill="#FF7675" height="51.5986" rx="2.5" ry="2.5" style="stroke:#000000;stroke-width:2;" width="113.5962" x="566.97" y="162.9773"/><text fill="#000000" font-family="Verdana" font-size="13" lengthAdjust="spacing" textLength="24.3369" x="576.97" y="186.0471">fs.*</text><text fill="#000000" font-family="Verdana" font-size="13" font-style="italic" lengthAdjust="spacing" textLength="93.5962" x="576.97" y="201.8464">Full filesystem</text></g><!--entity SHELL--><g class="entity" data-qualified-name="HOST.SHELL" data-source-line="15" id="ent0007"><rect fill="#FF7675" height="51.5986" rx="2.5" ry="2.5" style="stroke:#000000;stroke-width:2;" width="108.0991" x="423.72" y="162.9773"/><text fill="#000000" font-family="Verdana" font-size="13" lengthAdjust="spacing" textLength="88.0991" x="433.72" y="186.0471">child_process</text><text fill="#000000" font-family="Verdana" font-size="13" font-style="italic" lengthAdjust="spacing" textLength="79.2061" x="433.72" y="201.8464">Shell access</text></g><!--entity PC--><g class="entity" data-qualified-name="WASM.PC" data-source-line="29" id="ent0016"><rect fill="#74B9FF" height="35.7993" rx="2.5" ry="2.5" style="stroke:#000000;stroke-width:2;" width="96.9082" x="380.31" y="379.3673"/><text fill="#000000" font-family="Verdana" font-size="13" lengthAdjust="spacing" textLength="76.9082" x="390.31" y="402.4371">Plugin Code</text></g><!--entity WH--><g class="entity" data-qualified-name="WASM.WH" data-source-line="30" id="ent0017"><rect fill="#00B894" height="51.5986" rx="2.5" ry="2.5" style="stroke:#000000;stroke-width:2;" width="131.3569" x="1074.09" y="371.4673"/><text fill="#000000" font-family="Verdana" font-size="13" lengthAdjust="spacing" textLength="85.6426" x="1084.09" y="394.5371">allowedHosts</text><text fill="#000000" font-family="Verdana" font-size="13" font-style="italic" lengthAdjust="spacing" textLength="111.3569" x="1084.09" y="410.3364">empty by default</text></g><!--entity WP--><g class="entity" data-qualified-name="WASM.WP" data-source-line="31" id="ent0018"><rect fill="#00B894" height="51.5986" rx="2.5" ry="2.5" style="stroke:#000000;stroke-width:2;" width="131.3569" x="908.09" y="371.4673"/><text fill="#000000" font-family="Verdana" font-size="13" lengthAdjust="spacing" textLength="85.084" x="918.09" y="394.5371">allowedPaths</text><text fill="#000000" font-family="Verdana" font-size="13" font-style="italic" lengthAdjust="spacing" textLength="111.3569" x="918.09" y="410.3364">empty by default</text></g><!--entity WF--><g class="entity" data-qualified-name="WASM.WF" data-source-line="32" id="ent0019"><rect fill="#00B894" height="51.5986" rx="2.5" ry="2.5" style="stroke:#000000;stroke-width:2;" width="151.5107" x="722.01" y="371.4673"/><text fill="#000000" font-family="Verdana" font-size="13" lengthAdjust="spacing" textLength="90.2891" x="732.01" y="394.5371">hostFunctions</text><text fill="#000000" font-family="Verdana" font-size="13" font-style="italic" lengthAdjust="spacing" textLength="131.5107" x="732.01" y="410.3364">explicit exports only</text></g><!--entity WN--><g class="entity" data-qualified-name="WASM.WN" data-source-line="33" id="ent0020"><rect fill="#B2BEC3" height="67.3979" rx="2.5" ry="2.5" style="stroke:#000000;stroke-width:2;" width="130.2842" x="556.63" y="363.5673"/><text fill="#000000" font-family="Verdana" font-size="13" lengthAdjust="spacing" textLength="52.0635" x="566.63" y="386.6371">No shell</text><text fill="#000000" font-family="Verdana" font-size="13" lengthAdjust="spacing" textLength="45.8491" x="566.63" y="402.4364">No env</text><text fill="#000000" font-family="Verdana" font-size="13" lengthAdjust="spacing" textLength="110.2842" x="566.63" y="418.2358">No child_process</text></g><g class="entity" data-qualified-name="GMN12" data-source-line="24" id="ent0013"><path d="M11,376.4673 L11,418.0659 L332.5361,418.0659 L332.5361,386.4673 L322.5361,376.4673 L11,376.4673" fill="#FFFFFF" style="stroke:#000000;stroke-width:1;"/><path d="M322.5361,376.4673 L322.5361,386.4673 L332.5361,386.4673 L322.5361,376.4673" fill="#FFFFFF" style="stroke:#000000;stroke-width:1;"/><text fill="#000000" font-family="Verdana" font-size="13" font-weight="bold" lengthAdjust="spacing" textLength="248.1172" x="17" y="394.5371">Everything is available by default.</text><text fill="#000000" font-family="Verdana" font-size="13" lengthAdjust="spacing" textLength="300.5361" x="17" y="410.3364">The tool must be trusted not to abuse access.</text></g><g class="entity" data-qualified-name="GMN25" data-source-line="42" id="ent0026"><path d="M1052.76,509.9673 L1052.76,583.1646 L1428.7781,583.1646 L1428.7781,519.9673 L1418.7781,509.9673 L1052.76,509.9673" fill="#FFFFFF" style="stroke:#000000;stroke-width:1;"/><path d="M1418.7781,509.9673 L1418.7781,519.9673 L1428.7781,519.9673 L1418.7781,509.9673" fill="#FFFFFF" style="stroke:#000000;stroke-width:1;"/><text fill="#000000" font-family="Verdana" font-size="13" font-weight="bold" lengthAdjust="spacing" textLength="227.1636" x="1058.76" y="528.0371">Nothing is available by default.</text><text fill="#000000" font-family="Verdana" font-size="13" lengthAdjust="spacing" textLength="270.937" x="1058.76" y="543.8364">Each capability requires an explicit grant.</text><text fill="#000000" font-family="Verdana" font-size="13" lengthAdjust="spacing" textLength="355.0181" x="1058.76" y="559.6358">Ungranted capabilities don't exist &#8212; no error to catch,</text><text fill="#000000" font-family="Verdana" font-size="13" lengthAdjust="spacing" textLength="213.8081" x="1058.76" y="575.4351">no API to call, no attack surface.</text></g><!--link TC to ENV--><g class="link" data-entity-1="ent0003" data-entity-2="ent0004" data-link-type="dependency" data-source-line="17" id="lnk8"><path d="M311.04,170.6073 C328.68,146.3273 363.74,104.4073 405.77,87.6873 C455.74,67.8173 840.76,65.5473 889.77,87.6873 C923.65,102.9973 946.6499,133.1624 961.5899,157.7024" fill="none" id="TC-to-ENV" style="stroke:#000000;stroke-width:2;"/><polygon fill="#000000" points="964.71,162.8273,963.4465,153.0598,962.1099,158.5565,956.6132,157.2199,964.71,162.8273" style="stroke:#000000;stroke-width:2;"/><text fill="#FF0000" font-family="Verdana" font-size="13" lengthAdjust="spacing" textLength="46.9092" x="715.77" y="76.0471">implicit</text></g><!--link TC to NET--><g class="link" data-entity-1="ent0003" data-entity-2="ent0005" data-link-type="dependency" data-source-line="18" id="lnk9"><path d="M311.04,170.6073 C328.68,146.3273 363.74,104.4073 405.77,87.6873 C466.06,63.7173 638.14,62.0873 697.77,87.6873 C733.13,102.8773 758.2582,133.2041 774.7482,157.7941" fill="none" id="TC-to-NET" style="stroke:#000000;stroke-width:2;"/><polygon fill="#000000" points="778.09,162.7773,776.3995,153.0746,775.3052,158.6246,769.7552,157.5303,778.09,162.7773" style="stroke:#000000;stroke-width:2;"/><text fill="#FF0000" font-family="Verdana" font-size="13" lengthAdjust="spacing" textLength="46.9092" x="372.77" y="76.0471">implicit</text></g><!--link TC to FS--><g class="link" data-entity-1="ent0003" data-entity-2="ent0006" data-link-type="dependency" data-source-line="19" id="lnk10"><path d="M311.04,170.6073 C328.68,146.3273 363.74,104.4073 405.77,87.6873 C465.24,64.0373 492.69,58.7373 549.77,87.6873 C580.41,103.2373 598.8465,132.6772 610.4365,157.0872" fill="none" id="TC-to-FS" style="stroke:#000000;stroke-width:2;"/><polygon fill="#000000" points="613.01,162.5073,612.7632,152.6615,610.8654,157.9906,605.5364,156.0928,613.01,162.5073" style="stroke:#000000;stroke-width:2;"/><text fill="#FF0000" font-family="Verdana" font-size="13" lengthAdjust="spacing" textLength="46.9092" x="487.77" y="76.0471">implicit</text></g><!--link TC to SHELL--><g class="link" data-entity-1="ent0003" data-entity-2="ent0007" data-link-type="dependency" data-source-line="20" id="lnk11"><path d="M341.19,188.7773 C365.79,188.7773 391.04,188.7773 417.43,188.7773" fill="none" id="TC-to-SHELL" style="stroke:#000000;stroke-width:2;"/><polygon fill="#000000" points="423.43,188.7773,414.43,184.7773,418.43,188.7773,414.43,192.7773,423.43,188.7773" style="stroke:#000000;stroke-width:2;"/><text fill="#FF0000" font-family="Verdana" font-size="13" lengthAdjust="spacing" textLength="46.9092" x="359.43" y="182.8471">implicit</text></g><!--link HOST to GMN12--><g class="link" data-entity-1="ent0002" data-entity-2="ent0013" data-link-type="association" data-source-line="24" id="lnk14"><path d="M1077.9888,238.6778 C1077.7987,239.0898 1077.6038,239.4991 1077.4039,239.9056 C1077.004,240.7185 1076.5844,241.5199 1076.144,242.3077 C1075.2631,243.8832 1074.2991,245.4044 1073.2445,246.8544 C1071.1353,249.7543 1068.6638,252.3698 1065.77,254.5673 C1052.96,264.3073 502.76,260.8373 486.77,262.5673 C431.74,268.5373 416.62,268.2073 364.77,287.5673 C302.99,310.6473 237.37,351.5873 200.78,376.1073" fill="none" id="HOST-GMN12" style="stroke:#000000;stroke-width:2;stroke-dasharray:7,7;"/></g><!--link PC to WH--><g class="link" data-entity-1="ent0016" data-entity-2="ent0017" data-link-type="dependency" data-source-line="35" id="lnk21"><path d="M440.32,379.2373 C457.94,353.6173 494.23,307.7773 538.77,289.6073 C592.06,267.8673 1005.12,264.2073 1056.77,289.6073 C1091.08,306.4773 1112.5101,339.744 1125.6001,365.844" fill="none" id="PC-to-WH" style="stroke:#000000;stroke-width:2;"/><polygon fill="#000000" points="1128.29,371.2073,1127.8307,361.3692,1126.0485,366.7379,1120.6797,364.9556,1128.29,371.2073" style="stroke:#000000;stroke-width:2;"/><text fill="#008000" font-family="Verdana" font-size="13" lengthAdjust="spacing" textLength="85.5093" x="842.27" y="276.6371">explicit grant</text></g><!--link PC to WP--><g class="link" data-entity-1="ent0016" data-entity-2="ent0018" data-link-type="dependency" data-source-line="36" id="lnk22"><path d="M440.32,379.2373 C457.94,353.6173 494.23,307.7773 538.77,289.6073 C611.2,260.0573 820.57,255.0873 890.77,289.6073 C925.08,306.4773 946.5101,339.744 959.6001,365.844" fill="none" id="PC-to-WP" style="stroke:#000000;stroke-width:2;"/><polygon fill="#000000" points="962.29,371.2073,961.8307,361.3692,960.0485,366.7379,954.6797,364.9556,962.29,371.2073" style="stroke:#000000;stroke-width:2;"/><text fill="#008000" font-family="Verdana" font-size="13" lengthAdjust="spacing" textLength="85.5093" x="495.27" y="276.6371">explicit grant</text></g><!--link PC to WF--><g class="link" data-entity-1="ent0016" data-entity-2="ent0019" data-link-type="dependency" data-source-line="37" id="lnk23"><path d="M440.32,379.2373 C457.94,353.6173 494.23,307.7773 538.77,289.6073 C607.08,261.7373 637.68,258.9073 704.77,289.6073 C741.15,306.2573 765.6944,339.7719 781.0444,365.9419" fill="none" id="PC-to-WF" style="stroke:#000000;stroke-width:2;"/><polygon fill="#000000" points="784.08,371.1173,782.9768,361.3304,781.5503,366.8045,776.0763,365.3779,784.08,371.1173" style="stroke:#000000;stroke-width:2;"/><text fill="#008000" font-family="Verdana" font-size="13" lengthAdjust="spacing" textLength="85.5093" x="603.27" y="276.6371">explicit grant</text></g><!--link PC to WN--><g class="link" data-entity-1="ent0016" data-entity-2="ent0020" data-link-type="dependency" data-source-line="38" id="lnk24"><path d="M477.72,397.2673 C501.62,397.2673 524.7,397.2673 550.47,397.2673" fill="none" id="PC-to-WN" style="stroke:#000000;stroke-width:2;"/><polygon fill="#000000" points="556.47,397.2673,547.47,393.2673,551.47,397.2673,547.47,401.2673,556.47,397.2673" style="stroke:#000000;stroke-width:2;"/><text fill="#808080" font-family="Verdana" font-size="13" lengthAdjust="spacing" textLength="43.4814" x="495.42" y="391.3371">denied</text></g><!--link WASM to GMN25--><g class="link" data-entity-1="ent0015" data-entity-2="ent0026" data-link-type="association" data-source-line="42" id="lnk27"><path d="M1240.77,455.4748 C1240.77,455.8479 1240.77,456.2216 1240.77,456.5958 C1240.77,462.583 1240.77,468.7118 1240.77,474.814 C1240.77,487.0186 1240.77,499.1173 1240.77,509.7673" fill="none" id="WASM-GMN25" style="stroke:#000000;stroke-width:2;stroke-dasharray:7,7;"/></g><!--link HOST to WASM--><?plantuml-src dPJHJjim58Rl-nHdz69GqPO1emEXIbsNgaXGAhMCYp5DZdFIM7Njp7PQkcdI7c9Fk2VPYLDA2nGDSfFZ-Fo_VUBl-8rBS8AGIYPKoOw5IfbX4mWP7u-CpbJKrb8RA7Vyiv8HOSmowJfQkO7uWV3kO6NI87TCZIH-r2P2Cqm47okq5lPNabh6wDdJKoajpqPFg4jEE8bmtHfSG9kbB1HIk3bSw0Zb2LochdgcO6fzT9cvKcdX15jTRHtqZUQvqVPmdkA06v4wS5hBdIrW5hgNWs5UQT1gDU1d2UXP5W9RGyg3DYtaSuTjACSH3u_mOLvQh553DRrHzNfBIg0GfinOc0ehGedrklS8Uf_996uSDTu_D8dHyMHx9pUuKWQjCu8xZ42XcsapNXZqWk560rkhvEfEHkl7GgATMuUJXR0psAJZYP3HjqKDkS4WGN9WF1ylr8DkS7w-DF0Ez3kgHemILstwiaxWbEVWd1YCccAIIi65EwtxRyr7YhoEboceW9S9YZq_h_bLAYdj44Bjd9w0ZZqHP5Mf15CqSvS8DG9XWKsPa8mE4iBvNIFKAXNA72ReWO99HhY5D30Kv0UdSzA0XPd5nT-ibL3v2Lp1r9DDE6TalXtSEc6f6sGs4gfWrC-NFtM2e-3uCQDzdtbFQPyeRHo6nt7yC9D9gMSOvLtXZnadAVNHVJcBexxkGdblB_nmVBZ1eCzSygn1VvD1GajtCiMTqAfmk2tE0oZGnbdGIixlR3gRR7eQR8xeZQB8znozroWk37fG3lT3v0S5iFqLDgZ89HWZWwYQowsC35FhKAq9-wyLTbuhxAqAsRmPeH8OFODm3en7kAV_Wz-0yGJu_SLgy7icwFu1fc1zYpNAlb8-9BoN4a6vaLPlyrCKr09_V_yXn07fhZTv0t165zikQUbZgtzMV99oDnypvwWDm6OcPXnNsyFVpDKlYOYetg-HdgbgKTW_?></g></svg>